<svg style="position: absolute; width: 0; height: 0; overflow: hidden;" version="1.1" xmlns="http://www.w3.org/2000/svg" xmlns:xlink="http://www.w3.org/1999/xlink">
<defs>

<symbol id="icon-AnD_Company_logo" viewBox="0 0 111 32">
<title>AnD_Company_logo</title>
<path d="M22.609 0.545v5.927h2.328l-20.102 18.601h-4.29v6.382h22.428v-6.382h-3.518l1.126-0.913h12.513v0.913h-3.556v6.382h22.249v-6.382h-3.922v-12.273l17.98 12.273h-2.662v6.382h33.736l1.824-0.547 1.732-0.547 1.549-0.73 1.46-0.913 1.458-1.094 1.368-1.185 1.094-1.458 0.913-1.46 0.728-1.824 0.547-1.824 0.275-1.822 0.183-1.915-0.183-2.098-0.275-2.005-0.547-1.824-0.728-1.641-0.913-1.551-0.547-0.728-0.547-0.638-0.638-0.638-0.73-0.638-1.458-1.094-1.46-0.913-1.549-0.73-1.824-0.636-1.732-0.458h-33.736v5.927h3.831v6.076l-17.689-11.911-0.092-0.092h-26.624zM81.784 6.472h9.391l0.819 0.274 0.638 0.272 1.277 1.004 0.638 0.728 0.547 0.73 0.364 0.913 0.366 1.002 0.547 2.096 0.183 2.462-0.092 1.185-0.366 2.371-0.272 0.913-0.366 0.911-0.911 1.641-0.638 0.639-1.277 1.002-0.638 0.275-0.638 0.183h-9.572v-18.601zM33.094 12.543v5.599h-6.144l6.144-5.599z"></path>
</symbol>

<symbol id="icon-Biocon_Logo" viewBox="0 0 81 32">
<title>Biocon_Logo</title>
<path d="M14.418 0.402c0.432-0.054 0.889-0.042 1.287 0.152 0.751 0.33 1.274 1.104 1.325 1.92 0.023 0.203-0.026 0.402-0.034 0.604-0.003 0.514 0.039 1.038 0.224 1.522 0.275 0.737 0.753 1.407 1.39 1.874 0.361 0.252 0.762 0.445 1.178 0.585 0.734 0.26 1.299 0.935 1.435 1.701 0.108 0.525 0.017 1.087-0.256 1.548-0.447 0.775-1.389 1.233-2.274 1.079-0.777-0.049-1.581 0.068-2.273 0.441-0.712 0.375-1.338 0.975-1.606 1.748-0.139 0.356-0.121 0.744-0.119 1.118-0.007 0.603 0.277 1.165 0.61 1.651 0.002 0.003 0.007 0.009 0.009 0.013 0.444 0.617 1.073 1.090 1.768 1.392 0.266 0.106 0.546 0.182 0.795 0.326 0.685 0.401 1.136 1.188 1.095 1.986 0.021 1.144-1.004 2.188-2.15 2.179-0.589-0.030-1.188-0.019-1.765 0.113-0.792 0.196-1.484 0.693-2.004 1.313-0.308 0.376-0.552 0.809-0.687 1.277-0.22 0.72-0.824 1.314-1.557 1.497-0.377 0.082-0.776 0.085-1.15-0.015-0.692-0.19-1.286-0.725-1.518-1.407-0.195-0.58-0.153-1.244 0.145-1.782 0.389-0.718 1.179-1.216 2.005-1.189 0.806 0.084 1.655 0.025 2.396-0.33 0.003-0.001 0.009-0.004 0.012-0.006l0.078-0.039c0.003-0.001 0.009-0.004 0.012-0.006 0.602-0.322 1.168-0.772 1.486-1.39 0.002-0.002 0.005-0.008 0.006-0.011 0.483-0.934 0.329-2.107-0.238-2.97-0.001-0.003-0.005-0.007-0.006-0.010-0.447-0.678-1.086-1.226-1.82-1.573-0.262-0.111-0.543-0.182-0.79-0.328-0.576-0.316-1-0.901-1.104-1.552-0.085-0.545 0.012-1.127 0.322-1.589 0.465-0.746 1.396-1.155 2.261-1.007 0.639 0.006 1.298-0.041 1.894-0.29 0.731-0.288 1.402-0.79 1.783-1.489 0.41-0.747 0.416-1.675 0.095-2.455-0.468-1.133-1.517-1.966-2.673-2.32-0.701-0.264-1.235-0.913-1.376-1.646-0.092-0.449-0.044-0.929 0.148-1.345 0.295-0.66 0.926-1.167 1.641-1.29z"></path>
<path d="M9.542 6.344c0.328-0.496 0.856-0.862 1.444-0.965 0.729-0.126 1.511 0.138 2.020 0.675 0.369 0.389 0.607 0.917 0.598 1.459 0.068 1.081-0.797 2.116-1.862 2.274-0.436 0.051-0.874-0.029-1.311 0.003-0.283 0.004-0.561 0.066-0.839 0.109-0.023 0.008-0.070 0.024-0.093 0.033-0.749 0.253-1.458 0.691-1.932 1.334-0.485 0.67-0.638 1.563-0.405 2.356 0.253 0.864 0.85 1.596 1.567 2.125 0.334 0.231 0.694 0.433 1.085 0.548 0.751 0.252 1.36 0.921 1.496 1.708 0.038 0.389 0.045 0.797-0.098 1.168-0.236 0.635-0.764 1.163-1.413 1.368-0.364 0.124-0.757 0.133-1.137 0.090-0.422-0.044-0.842 0.036-1.257 0.098-0.024 0.007-0.072 0.022-0.096 0.029-0.083 0.029-0.168 0.050-0.252 0.077-0.004 0.001-0.010 0.003-0.014 0.005-0.032 0.011-0.097 0.034-0.129 0.045-0.003 0.001-0.008 0.003-0.011 0.004-0.172 0.064-0.339 0.14-0.501 0.227-0.003 0.001-0.009 0.005-0.012 0.006-0.74 0.392-1.342 1.068-1.571 1.88-0.171 0.58-0.111 1.212 0.109 1.772 0.386 0.99 1.2 1.786 2.166 2.213 0.003 0.001 0.008 0.003 0.010 0.004 0.269 0.1 0.549 0.179 0.802 0.32 0.638 0.352 1.085 1.036 1.134 1.765 0.049 0.584-0.138 1.186-0.518 1.634-0.424 0.498-1.072 0.806-1.728 0.794-0.61 0.007-1.202-0.286-1.605-0.737-0.416-0.453-0.629-1.083-0.573-1.695 0.074-0.587-0.008-1.185-0.178-1.748-0.287-0.783-0.788-1.501-1.483-1.974-0.331-0.221-0.689-0.405-1.069-0.525-0.738-0.254-1.321-0.918-1.471-1.685-0.049-0.321-0.051-0.65 0.003-0.971 0.161-0.714 0.707-1.321 1.391-1.574 0.425-0.173 0.895-0.156 1.342-0.102 0.966 0.022 1.954-0.276 2.711-0.886 0.555-0.44 0.95-1.081 1.072-1.78 0.122-0.622-0.040-1.265-0.322-1.822-0.493-0.964-1.4-1.687-2.425-2.018-0.808-0.257-1.422-1.020-1.517-1.86-0.039-0.39-0.003-0.797 0.158-1.157 0.275-0.656 0.881-1.163 1.578-1.312 0.414-0.101 0.841-0.002 1.259-0.012 1.394-0.036 2.734-0.888 3.357-2.136 0.201-0.375 0.275-0.809 0.518-1.164z"></path>
<path d="M36.557 9.095c1.077 0.006 2.154 0 3.231 0.002-0.147 0.796-0.334 1.584-0.482 2.38-1.083 0-2.165 0-3.248-0 0.143-0.798 0.31-1.593 0.498-2.382z"></path>
<path d="M24.868 9.815c1.923-0.004 3.846-0.006 5.769 0.013 0.886 0.023 1.812 0.285 2.465 0.909 0.405 0.37 0.643 0.895 0.722 1.433 0.099 0.67-0.001 1.378-0.344 1.968-0.457 0.818-1.314 1.345-2.205 1.573-0.182 0.058-0.38 0.059-0.555 0.139 0.671 0.117 1.351 0.4 1.795 0.936 0.352 0.414 0.499 0.967 0.502 1.502-0.010 0.708-0.189 1.427-0.596 2.015-0.467 0.706-1.216 1.176-1.998 1.465-0.62 0.229-1.278 0.336-1.934 0.396-1.058 0.008-2.116 0.049-3.174 0.047-1.006 0.013-2.013 0.048-3.020 0.040 0.842-4.148 1.712-8.29 2.573-12.434zM27.67 12.197c-0.16 0.844-0.342 1.684-0.52 2.525 0.786-0.035 1.598 0.074 2.36-0.176 0.422-0.141 0.843-0.431 0.972-0.878 0.117-0.342 0.060-0.745-0.168-1.029-0.23-0.26-0.584-0.35-0.914-0.399-0.574-0.066-1.154-0.040-1.73-0.043zM26.677 16.983c-0.17 0.809-0.336 1.62-0.508 2.428-0.035 0.152-0.076 0.305-0.073 0.462 0.439-0.003 0.879 0.023 1.315-0.029 0.501-0.025 1.012-0.105 1.464-0.332 0.372-0.188 0.689-0.525 0.774-0.942 0.021-0.373 0.079-0.808-0.191-1.111-0.337-0.385-0.893-0.414-1.368-0.441-0.469-0.057-0.943-0.029-1.414-0.035z"></path>
<path d="M9.499 9.932c0.023-0.008 0.070-0.025 0.093-0.033l-0.008 0.041-0.048 0.017-0.037-0.025z"></path>
<path d="M44.656 12.768c0.549-0.068 1.105-0.028 1.652 0.035 0.825 0.113 1.643 0.389 2.308 0.9 0.578 0.434 1.024 1.039 1.264 1.721 0.234 0.677 0.289 1.408 0.216 2.118-0.072 1.111-0.428 2.235-1.156 3.094-0.766 0.911-1.893 1.447-3.046 1.668-0.66 0.122-1.333 0.182-2.003 0.15-0.818-0.017-1.647-0.161-2.386-0.523-0.606-0.289-1.138-0.74-1.499-1.308-0.306-0.48-0.492-1.028-0.58-1.589-0.048-0.434-0.1-0.874-0.040-1.309 0.060-0.819 0.282-1.635 0.697-2.347 0.441-0.762 1.094-1.397 1.86-1.828 0.827-0.467 1.768-0.718 2.712-0.781zM44.877 15.038c-0.551 0.084-1.055 0.399-1.396 0.837-0.402 0.491-0.642 1.1-0.745 1.723-0.067 0.566-0.061 1.168 0.197 1.689 0.19 0.402 0.55 0.73 0.986 0.839 0.59 0.148 1.25 0.024 1.743-0.335 0.443-0.313 0.729-0.803 0.899-1.309 0.203-0.633 0.273-1.308 0.216-1.97-0.051-0.43-0.219-0.868-0.561-1.151-0.366-0.311-0.876-0.384-1.34-0.322z"></path>
<path d="M55.832 12.784c1.271-0.168 2.554 0.127 3.741 0.572-0.205 0.75-0.467 1.485-0.672 2.235-0.191-0.016-0.359-0.117-0.54-0.172-0.434-0.169-0.895-0.262-1.358-0.301-0.699-0.029-1.431 0.141-1.986 0.585-0.738 0.587-1.018 1.579-0.985 2.49 0.022 0.466 0.21 0.93 0.548 1.257 0.404 0.427 1.002 0.628 1.581 0.627 0.712 0.025 1.419-0.13 2.075-0.401-0.095 0.82-0.29 1.626-0.442 2.437-0.903 0.291-1.86 0.354-2.802 0.347-0.957-0.006-1.931-0.273-2.693-0.867-0.839-0.629-1.389-1.607-1.539-2.64-0.177-1.22 0.072-2.508 0.725-3.558 0.401-0.655 0.948-1.216 1.589-1.639 0.819-0.547 1.781-0.863 2.757-0.972z"></path>
<path d="M64.391 12.765c0.953-0.085 1.935 0.004 2.838 0.332 0.758 0.28 1.454 0.767 1.916 1.437 0.31 0.44 0.519 0.947 0.625 1.474 0.108 0.521 0.052 1.055 0.061 1.583-0.072 0.828-0.283 1.655-0.698 2.38-0.435 0.769-1.112 1.391-1.899 1.788-0.755 0.389-1.595 0.584-2.436 0.664-1.061 0.080-2.158 0.053-3.166-0.32-0.741-0.267-1.41-0.753-1.852-1.41-0.491-0.73-0.693-1.625-0.678-2.497-0.007-0.867 0.167-1.741 0.553-2.519 0.4-0.826 1.047-1.526 1.824-2.011 0.874-0.542 1.89-0.829 2.912-0.901zM64.614 15.033c-0.752 0.107-1.374 0.653-1.727 1.305-0.426 0.804-0.624 1.774-0.346 2.659 0.146 0.49 0.505 0.935 0.998 1.104 0.845 0.27 1.845-0.074 2.345-0.808 0.496-0.708 0.653-1.6 0.636-2.449 0.018-0.551-0.157-1.153-0.603-1.506-0.365-0.286-0.853-0.351-1.303-0.305z"></path>
<path d="M76.265 13.102c0.484-0.227 1.017-0.322 1.547-0.364 0.552-0.020 1.124 0.034 1.625 0.285 0.559 0.268 0.996 0.757 1.244 1.321 0.221 0.506 0.328 1.063 0.303 1.614 0.017 0.437-0.026 0.873-0.111 1.301-0.323 1.664-0.652 3.326-0.975 4.99-1.107 0.006-2.214 0.004-3.32 0.007 0.052-0.411 0.162-0.812 0.237-1.219 0.259-1.259 0.523-2.517 0.77-3.779 0.061-0.407 0.174-0.851-0.020-1.241-0.13-0.304-0.436-0.498-0.755-0.548-0.504-0.082-1.045 0.018-1.466 0.313-0.622 0.412-0.972 1.119-1.16 1.82-0.338 1.551-0.643 3.109-0.991 4.656-1.073-0.016-2.146 0.008-3.219-0.009 0.474-2.156 0.904-4.321 1.357-6.482 0.189-0.938 0.394-1.878 0.468-2.834 0.996-0.007 1.993-0 2.99-0.003-0.054 0.515-0.161 1.024-0.241 1.536 0.475-0.559 1.049-1.049 1.715-1.363z"></path>
<path d="M35.737 12.934c1.084-0.003 2.167-0.005 3.251 0-0.46 2.287-0.943 4.569-1.409 6.855-0.175 0.821-0.329 1.647-0.516 2.465-1.083 0-2.166 0.005-3.248-0.007 0.643-3.104 1.273-6.21 1.922-9.313z"></path>
<path d="M15.305 16.345c0.002 0.003 0.007 0.009 0.009 0.013-0.002-0.003-0.007-0.009-0.009-0.013z"></path>
<path d="M14.036 17.286c0.001 0.002 0.005 0.007 0.006 0.010-0.001-0.003-0.005-0.007-0.006-0.010z"></path>
<path d="M14.274 20.276c0.002-0.002 0.005-0.008 0.006-0.011-0.001 0.003-0.004 0.008-0.006 0.011z"></path>
<path d="M7.309 20.756c0.024-0.007 0.071-0.021 0.096-0.029l-0.010 0.041-0.049 0.015-0.036-0.027z"></path>
<path d="M7.043 20.837c0.003-0.001 0.010-0.003 0.014-0.005-0.004 0.001-0.010 0.003-0.014 0.005z"></path>
<path d="M6.903 20.886c0.003-0.001 0.008-0.003 0.011-0.004-0.003 0.001-0.008 0.003-0.011 0.004z"></path>
<path d="M6.391 21.119c0.003-0.001 0.009-0.005 0.012-0.006-0.003 0.001-0.009 0.005-0.012 0.006z"></path>
<path d="M12.775 21.672c0.003-0.001 0.009-0.004 0.012-0.006-0.003 0.002-0.009 0.005-0.012 0.006z"></path>
<path d="M12.685 21.716c0.003-0.001 0.009-0.004 0.012-0.006-0.003 0.001-0.009 0.004-0.012 0.006z"></path>
<path d="M7.095 26.983c0.003 0.001 0.008 0.003 0.010 0.004-0.002-0.001-0.007-0.003-0.010-0.004z"></path>
</symbol>

<symbol id="icon-Dell_Logo" viewBox="0 0 32 32">
<title>Dell_Logo</title>
<path d="M16.001 1.824c-3.913 0-7.457 1.587-10.023 4.155-2.567 2.562-4.153 6.108-4.153 10.023 0 3.912 1.586 7.455 4.153 10.018 2.566 2.564 6.11 4.154 10.023 4.154s7.46-1.59 10.022-4.154c2.566-2.563 4.149-6.106 4.149-10.018 0-3.915-1.583-7.461-4.149-10.023-2.562-2.568-6.108-4.155-10.022-4.155zM16.001 0.107c8.776 0 15.892 7.117 15.892 15.895 0 8.775-7.116 15.891-15.892 15.891s-15.894-7.116-15.894-15.891c0-8.778 7.119-15.895 15.894-15.895z"></path>
<path d="M8.484 15.872c0-0.926-0.615-1.452-1.485-1.452h-0.532v2.906h0.517c0.809 0 1.5-0.44 1.5-1.453zM17.956 16.918l-3.923 3.089-3.585-2.823c-0.517 1.243-1.768 2.106-3.207 2.106h-3.068v-6.835h3.068c1.609 0 2.768 1.023 3.206 2.113l3.586-2.82 1.328 1.045-3.287 2.583 0.632 0.494 3.286-2.582 1.33 1.043-3.286 2.586 0.631 0.495 3.289-2.587v-2.372h2.384v4.84h2.379v2.003h-4.763v-2.381zM25.74 17.296h2.378v2.002h-4.765v-6.844h2.387v4.841z"></path>
</symbol>

<symbol id="icon-Expedia_logo" viewBox="0 0 113 32">
<title>Expedia_logo</title>
<path d="M54.34 25.038h-3.511c-0.017 0-0.026-0.003-0.035-0.015l-3.026-3.693-3.027 3.693c-0.007 0.012-0.019 0.015-0.033 0.015h-2.812c-0.017 0-0.031-0.009-0.042-0.027-0.005-0.010-0.005-0.030 0.006-0.044l4.457-5.473-4.406-5.421c-0.013-0.017-0.013-0.034-0.007-0.052 0.007-0.010 0.024-0.025 0.039-0.025h3.513c0.010 0 0.024 0.006 0.032 0.021l2.654 3.29 2.701-3.292c0.008-0.013 0.021-0.019 0.033-0.019h2.863c0.017 0 0.034 0.016 0.041 0.025 0.007 0.018 0.005 0.036-0.007 0.052l-4.181 5.021 4.776 5.873c0.011 0.014 0.016 0.033 0.006 0.044-0.006 0.019-0.023 0.027-0.037 0.027z"></path>
<path d="M73.341 15.942c-1.554 0-2.618 0.943-2.92 2.584h5.291v-0.107c0-1.311-0.968-2.477-2.37-2.477zM78.44 20.208c-0.009 0.011-0.025 0.021-0.039 0.021h-8.037c0.168 1.871 1.383 2.937 3.348 2.937 1.212 0 2.498-0.413 4.314-1.379 0.033-0.019 0.068 0.008 0.068 0.042l-0.005 2.472c-0.003 0.021-0.011 0.033-0.025 0.038-1.691 0.712-3.389 1.198-4.723 1.198-3.46 0-5.97-2.522-5.97-5.996 0-3.472 2.51-5.994 5.97-5.994 3.156 0 5.184 2.127 5.184 5.052 0 0.473-0.082 1.574-0.086 1.609z"></path>
<path d="M94.764 11.715c-0.986 0-1.788-0.789-1.788-1.761 0-1 0.802-1.812 1.788-1.812s1.788 0.812 1.788 1.812c0 0.971-0.803 1.761-1.788 1.761zM93.32 25.036c-0.028 0-0.046-0.017-0.046-0.045v-10.951c0-0.023 0.016-0.040 0.035-0.046h2.903c0.024 0.005 0.036 0.023 0.036 0.046v10.951c0 0.028-0.019 0.045-0.042 0.045h-2.886z"></path>
<path d="M59.647 23.39c-0.523 0-1.059-0.075-1.675-0.238l0.006-7.027c0.72-0.229 1.349-0.338 1.97-0.338 2.011 0 3.361 1.484 3.361 3.689 0 2.378-1.438 3.914-3.663 3.914zM60.437 13.549c-0.818 0-1.646 0.149-2.513 0.447h-2.889c-0.025 0-0.040 0.020-0.040 0.046v17.958c0.872-0.119 1.94-0.429 2.979-1.169l-0.001-5.463c0.71 0.101 1.299 0.168 1.867 0.168 3.955 0 6.514-2.37 6.514-6.042 0-3.501-2.434-5.946-5.918-5.946z"></path>
<path d="M88.037 22.478c-0.904 0.474-1.712 0.7-2.471 0.7-1.792 0-2.865-1.266-2.865-3.387 0-2.452 1.37-4.038 3.49-4.038 0.585 0 1.154 0.144 1.846 0.457v6.268zM88.037 8.196v5.733c-0.847-0.241-1.594-0.354-2.347-0.354-3.443 0-6.042 2.597-6.042 6.042 0 3.43 2.293 5.919 5.448 5.919 1.092 0 2.115-0.275 3.318-0.893l-0.003 0.989c0.794-0.152 1.706-0.469 2.605-1.107v-17.502c-0.883 0.118-1.93 0.414-2.979 1.173z"></path>
<path d="M106.304 22.456c-0.875 0.504-1.624 0.748-2.294 0.748-1.918 0-3.068-1.263-3.068-3.39 0-2.416 1.353-4.038 3.366-4.038 0.539 0 1.193 0.207 1.996 0.63v6.049zM109.287 13.863c0-0.068-0.058-0.123-0.125-0.123l-2.345 0.004c-0.070 0-0.129 0.058-0.129 0.125v0.4h-0.059c-1.083-0.474-2.008-0.695-2.917-0.695-3.245 0-5.79 2.693-5.79 6.141 0 3.484 2.278 5.82 5.668 5.82 0.905 0 2.067-0.062 3.154-1.313v1.409c0.769-0.163 1.677-0.49 2.539-1.11l0.004-10.658z"></path>
<path d="M33.865 22.298l7.286-0.003c-0.109 0.815-0.385 1.767-1.018 2.739l-7.497-0.001c-0.025 0-0.053 0.001-0.082 0.001-0.928 0-1.691-0.719-1.782-1.628-0.004-0.013-0.010-0.027-0.011-0.039v-14.371c0.001-0.010 0.007-0.026 0.011-0.035 0.091-0.911 0.854-1.633 1.782-1.633 0.030 0 0.057 0.004 0.082 0.004l8.499-0.002c-0.111 0.813-0.387 1.79-1.018 2.759h-6.252v3.912h6.189c0.026 0 0.045 0.018 0.045 0.043v2.713c0 0.023-0.019 0.043-0.045 0.043h-6.189v5.497z"></path>
<path d="M15.345 10.078l-0.528-1.496-4.482-5.989 0.804-0.2 7.728 6.679 4.547-1.301c0.534-0.137 1.14-0.168 1.603-0.164-1.429-3.082-4.044-5.613-7.497-6.842-6.826-2.433-14.329 1.134-16.759 7.962-0.751 2.114-0.928 4.292-0.613 6.364l10.893-3.783 4.305-1.231z"></path>
<path d="M25.498 8.787c-0.4 0.258-0.986 0.6-1.569 0.786l-4.557 1.301-3.041 9.76-0.789 0.257 0.643-7.455-0.359-1.548-4.269 1.219-11.288 2.657c0.896 4.342 3.97 8.126 8.452 9.723 6.827 2.433 14.328-1.134 16.757-7.958 1.046-2.943 0.978-6.010 0.019-8.742z"></path>
</symbol>

<symbol id="icon-Hewlett-Packard_logo" viewBox="0 0 50 32">
<title>Hewlett-Packard_logo</title>
<path d="M26.991 28.611c6.648 0 12.039-5.715 12.039-12.765 0-7.048-5.391-12.763-12.039-12.763-0.248 0-0.495 0.008-0.738 0.024l0.657-2.048h19.073c1.698 0 3.077 1.433 3.077 3.2v23.287c0 1.767-1.378 3.199-3.077 3.199h-19.73l0.738-2.134z"></path>
<path d="M20.347 1.059h-15.949c-1.698 0-3.075 1.433-3.075 3.2v23.287c0 1.767 1.377 3.199 3.075 3.199h15.291l0.899-2.376c-5.423-1.27-9.488-6.506-9.488-12.774 0-5.853 3.545-10.806 8.431-12.47l0.815-2.066z"></path>
<path d="M29.848 20.226h-1.606l3.018-8.474h1.607l-3.019 8.474zM33.883 10.016h-5.206l-7.384 20.735h3.199l3.146-8.835h3.2c0.707 0 1.599-0.211 1.969-1.266 0.368-1.056 2.368-6.591 2.922-8.254 0.553-1.665-0.769-2.379-1.847-2.379z"></path>
<path d="M25.834 12.66l-3.151 8.837h-3.17l3.466-9.723h-1.633l-3.466 9.723h-3.199l7.286-20.426h3.199l-3.208 8.995h2.154c1.551 0 2.187 1.216 1.722 2.594z"></path>
</symbol>

<symbol id="icon-Molten_company_logo" viewBox="0 0 129 32">
<title>Molten_company_logo</title>
<path d="M42.16 19.503c-0.301-3.197 1.81-5.368 3.62-6.453 1.81-1.087 3.558-2.654 3.981-3.619 0.285-0.653-0.339-1.91-0.773-2.657-0.381-0.037-0.767-0.057-1.158-0.057-6.463 0-11.701 5.239-11.701 11.701 0 2.033 0.519 3.944 1.431 5.61h8.28c-0.001-0.001-3.485-2.461-3.68-4.524v0z"></path>
<path d="M51.932 21.554c-0.887 0.939-3.137 2.473-3.981 1.146-0.842-1.323 1.769-2.444 3.076-3.377 2.111-1.508 2.473-2.353 2.473-2.353s-0.543 3.498-1.568 4.584v0 0zM50.333 6.987c1.201 1.279 3.296 3.865 3.167 6.243-0.181 3.317-1.689 3.98-3.921 5.488s-3.377 2.533-3.377 3.499c0 0.965 1.146 1.87 1.146 1.87h10.719c0.932-1.681 1.466-3.613 1.466-5.67 0-5.602-3.939-10.283-9.199-11.429v0z"></path>
<path d="M38.597 25.596c2.141 2.75 5.477 4.523 9.233 4.523s7.092-1.773 9.232-4.523h-18.465z"></path>
<path d="M1.607 14.197c0-2.571 4.643-7.684 8.842-7.839 5.080-0.188 7.839 2.571 7.839 2.571s2.321-2.697 6.898-2.697c5.708 0 9.934 5.541 9.934 8.7v14.636h-7.587v-13.305c0-1.056-0.175-1.84-0.526-2.353-0.511-0.806-1.642-1.21-2.387-1.21-0.907 0-1.629 0.381-2.171 1.143s-0.811 1.988-0.811 3.673v12.052h-7.086v-12.833c0-1.023-0.052-1.718-0.154-2.085-0.162-0.584-1.315-2.085-3.071-1.952-0.864 0.065-1.818 0.388-2.383 1.163s-0.848 2.047-0.848 3.816v11.89h-6.526l0.036-15.372z"></path>
<path d="M60.353 1.571v0h6.868v28.206h-6.868z"></path>
<path d="M80.498 13.382v-6.146h-4.807v-5.665h-6.867c0 0-0.019 15.882 0 17.211 0.073 5.010 2.893 10.215 7.284 10.591 1.188 0.102 4.391 0 4.391 0v-5.519c0 0-2.447 0.252-3.575-0.627-1.253-0.974-1.232-4.446-1.232-4.446v-5.401l4.806 0.001z"></path>
<path d="M97.252 21.963h6.942c-1.588 4.912-6.196 8.466-11.636 8.466-6.754 0-12.229-5.475-12.229-12.229s5.475-12.229 12.229-12.229c6.753 0 12.229 5.475 12.229 12.229 0 0.771-0.075 1.526-0.212 2.257h-17.595c0.894 2.205 3.053 3.763 5.579 3.763 1.899 0 3.591-0.882 4.694-2.257v0z"></path>
<path fill="#fff" style="fill: var(--color4, #fff)" d="M97.535 14.814h-9.954c1.084-1.589 2.908-2.634 4.977-2.634s3.893 1.045 4.977 2.634v0z"></path>
<path d="M118.001 15.828v14.173h6.71v-14.173c0 0-0.314-9.030-10.536-8.968-8.842 0.054-8.905 8.968-8.905 8.968v14.173h6.71v-14.173c0 0 0.314-2.634 2.885-2.634s3.136 2.634 3.136 2.634v0z"></path>
</symbol>

<symbol id="icon-NTT_company_logo" viewBox="0 0 88 32">
<title>NTT_company_logo</title>
<path d="M0.035 15.149c0 9.382 7.667 16.638 16.657 16.638 8.989 0 16.657-7.256 16.657-16.638 0-8.605-5.989-14.877-12.621-14.877-1.508 0-2.992 0.326-4.036 0.755-1.045-0.429-2.53-0.755-4.035-0.755-6.634 0-12.622 6.273-12.622 14.877zM19.66 10.83c0 1.822-1.203 3.258-2.967 3.258-1.763 0-2.967-1.436-2.967-3.258 0-2.485 1.689-4.69 2.967-5.448 1.279 0.759 2.967 2.964 2.967 5.448zM4.131 15.070c0-6.475 4.673-10.9 8.345-10.735-1.74 1.734-2.795 4.259-2.795 6.701 0 4.204 3.336 7.152 7.012 7.152 3.674 0 7.012-2.948 7.012-7.152 0-2.442-1.054-4.968-2.795-6.701 3.672-0.165 8.345 4.26 8.345 10.735 0 7.089-5.688 12.62-12.563 12.62s-12.563-5.531-12.563-12.62z"></path>
<path d="M48.82 7.106v3.294h1.84v6.057l-4.941-9.351h-5.703v3.294h1.839v10.078h-1.839v3.292h7.543v-3.292h-1.84v-6.058l4.941 9.35h3.864v-13.37h1.839v-3.294h-7.542z"></path>
<path d="M72.035 13.506v-6.401h-14.506v6.401h3.293v-3.107h1.772v10.078h-2.406v3.29h9.186v-3.29h-2.406v-10.078h1.773v3.107h3.292z"></path>
<path d="M87.664 13.506v-6.401h-14.504v6.401h3.291v-3.107h1.773v10.078h-2.405v3.29h9.184v-3.29h-2.404v-10.078h1.772v3.107h3.293z"></path>
</symbol>

<symbol id="icon-Williams_Companies_logo" viewBox="0 0 61 32">
<title>Williams_Companies_logo</title>
<path d="M14.394 7.66h-2.753l-0.078 0.181-2.803 6.605 0.174-6.481 0.008-0.304h-2.82l-0.077 0.179-2.859 6.604 0.227-6.476 0.011-0.307h-2.707l-0.003 0.293-0.152 11.807-0.003 0.301h2.783l3.075-7.257-0.123 6.955-0.005 0.302h2.784l0.077-0.18 5.244-12.221z"></path>
<path d="M17.206 10.964h-2.631l-0.051 0.233-1.965 8.864h2.631l0.052-0.233 1.965-8.864z"></path>
<path d="M17.182 9.996h0.238l0.051-0.232 0.42-1.895 0.081-0.362h-2.633l-0.051 0.233-0.421 1.896-0.080 0.361h2.393z"></path>
<path d="M21.99 7.66h-2.632l-0.051 0.232-2.697 12.168h2.632l0.051-0.233 2.698-12.167z"></path>
<path d="M26.043 7.66h-2.631l-0.052 0.232-2.697 12.168h2.631l0.051-0.233 2.698-12.167z"></path>
<path d="M29.281 10.964h-2.631l-0.051 0.233-1.965 8.864h2.631l0.052-0.233 1.965-8.864z"></path>
<path d="M29.258 9.996h0.238l0.051-0.232 0.42-1.895 0.081-0.362h-2.632l-0.051 0.233-0.421 1.896-0.080 0.361h2.393z"></path>
<path d="M33.617 17.333c-0.578 0.398-1.334 0.779-1.796 0.779-0.135 0-0.317-0.026-0.415-0.148-0.105-0.131-0.087-0.337-0.054-0.487 0.198-0.892 1.342-1.19 2.549-1.422l-0.284 1.278zM36.853 14.604c0.306-1.377 0.227-2.301-0.25-2.907-0.451-0.576-1.257-0.856-2.537-0.884-1.325-0.035-2.973 0.697-3.751 1.666l-0.173 0.217 0.204 0.188 1.299 1.191 0.202-0.211c0.446-0.47 1.019-0.951 1.877-0.951 0.311 0 0.554 0.080 0.667 0.22 0.081 0.102 0.103 0.246 0.062 0.43l-0.114 0.513c-3.458 0.434-5.205 1.527-5.649 3.53-0.162 0.731-0.038 1.4 0.349 1.882 0.265 0.33 0.784 0.723 1.745 0.723 1.002 0.010 1.81-0.29 2.524-0.667l-0.010 0.204-0.013 0.31h2.621l-0.041-0.334c-0.036-0.287-0.004-0.644 0.103-1.125l0.886-3.996z"></path>
<path d="M49.948 11.468c-0.338-0.423-0.877-0.655-1.516-0.655-1.371 0-2.321 0.5-3.066 1.056-0.335-0.66-1.046-1.056-1.951-1.056-0.953-0.008-1.625 0.23-2.332 0.682l0.037-0.168 0.080-0.361h-2.451l-0.052 0.232-1.883 8.501-0.081 0.361h2.632l0.051-0.233 1.33-5.998c0.633-0.472 1.279-0.786 1.632-0.789 0.165 0.008 0.376 0.042 0.464 0.155 0.076 0.1 0.084 0.3 0.023 0.577l-1.314 5.927-0.080 0.361h2.631l0.051-0.233 1.33-5.998c0.632-0.472 1.279-0.786 1.633-0.789 0.166 0.008 0.376 0.042 0.463 0.155 0.078 0.1 0.085 0.3 0.023 0.577l-1.394 6.287h2.632l0.051-0.233 1.353-6.105c0.217-0.98 0.118-1.738-0.297-2.255z"></path>
<path d="M54.855 12.913c0.411 0 0.776 0.245 1.148 0.769l0.174 0.246 0.244-0.178 1.739-1.271-0.147-0.234c-0.567-0.911-1.644-1.433-2.955-1.433-1.468 0-3.235 0.844-3.645 2.699-0.439 1.978 1.122 2.596 2.261 3.045 0.822 0.325 1.202 0.512 1.132 0.828-0.095 0.428-0.563 0.727-1.136 0.727-0.621 0-1.081-0.336-1.444-1.057l-0.148-0.294-2.071 1.325 0.106 0.234c0.561 1.238 1.635 1.892 3.107 1.892 2.103 0 3.589-1.039 3.975-2.78 0.462-2.086-1.188-2.717-2.281-3.134-0.799-0.306-1.168-0.483-1.1-0.788 0.087-0.396 0.439-0.597 1.041-0.597z"></path>
<path d="M22.337 22.018c-10.422 4.268-18.974 5.312-19.102 2.332-0.034-0.793 0.536-1.791 1.581-2.91h-1.521c-2.267 2.171-3.438 4.032-3.155 5.314 0.806 3.651 13.1 1.262 27.693-5.314h-4.127c-0.453 0.195-0.908 0.389-1.369 0.577z"></path>
<path d="M54.705 1.817c-0.769-3.587-12.301-1.593-26.414 4.379l0.625 0.33c8.616-3.43 16.063-5.52 19.969-5.364 4.661 0.186 3.127 3.523-3.021 8.376h2.914c4.042-3.18 6.304-5.967 5.927-7.721z"></path>
<path d="M55.873 5.394c-0.142-0.513-0.521-0.902-1.108-1.173-0.368 0.715-0.954 1.505-1.739 2.356-0.099 0.774-0.752 1.779-1.907 2.961h2.829c1.503-1.675 2.212-3.106 1.924-4.143z"></path>
<path d="M30.957 9.441l0.615 0.325c7.657-3.014 14.518-4.915 18.378-4.916 0.27-0.378 0.48-0.731 0.629-1.058-4.57 0.33-11.653 2.32-19.622 5.648z"></path>
<path d="M32.349 21.441c-2.308 1.229-4.836 2.434-7.493 3.549-9.335 3.917-17.248 5.47-19.537 4.042-1.941 0.17-3.133-0.032-3.762-0.215-0.114 0.267-0.193 0.522-0.232 0.764-0.639 4.011 9.683 2.851 23.052-2.588 4.165-1.694 8.134-3.604 11.644-5.552h-3.671z"></path>
<path d="M10.681 21.441h-1.267c-1.883 1.26-3.499 2.492-4.789 3.647 0.289 0.172 0.902 0.325 1.289 0.351 1.041-1.199 2.679-2.569 4.766-3.998z"></path>
</symbol>

<symbol id="icon-Bluestar_(bus_company)_logo" viewBox="0 0 153 32">
<title>Bluestar_(bus_company)_logo</title>
<path d="M29.075 20.606c0 1.849 0.636 3.421 1.903 4.72 1.267 1.291 2.825 1.938 4.679 1.938h0.443c1.225 0 2.263 0.43 3.122 1.293 0.861 0.857 1.291 1.895 1.291 3.116h-4.854c-3.087 0-5.733-1.077-7.933-3.223-2.201-2.14-3.301-4.757-3.301-7.85v-20.588c1.273 0 2.368 0.463 3.281 1.374 0.914 0.916 1.369 2.014 1.369 3.289v15.931z"></path>
<path d="M103.409 20.606c0 1.849 0.634 3.421 1.903 4.72 1.269 1.291 2.83 1.938 4.677 1.938h0.449c1.221 0 2.261 0.43 3.124 1.293 0.857 0.857 1.287 1.895 1.287 3.116h-4.854c-3.087 0-5.735-1.077-7.933-3.223-2.206-2.14-3.305-4.757-3.305-7.85v-20.588c1.275 0 2.364 0.463 3.281 1.374 0.912 0.916 1.37 2.014 1.37 3.289v15.931z"></path>
<path d="M141.814 27.342c0 1.277-0.459 2.374-1.37 3.291-0.916 0.914-2.012 1.37-3.283 1.37v-11.415c0-3.087 1.096-5.704 3.301-7.848 2.204-2.146 4.846-3.217 7.933-3.217h4.856c0 1.219-0.43 2.259-1.291 3.116-0.861 0.863-1.901 1.293-3.122 1.293h-0.447c-1.849 0-3.406 0.649-4.675 1.942-1.267 1.293-1.901 2.863-1.901 4.714v6.753z"></path>
<path d="M93.204 9.25c-3.087 0-5.46 1.071-7.657 3.217-2.156 2.098-2.638 4.654-2.681 7.655h-0.012v0.787c-0.054 1.746 0.371 3.235-0.842 4.473-1.266 1.291-2.368 1.938-4.22 1.938h-4.177c-1.221 0 0.906 0.432 0.041 1.289-0.855 0.857-0.723 1.899-0.723 3.118h4.856c3.087 0 5.276-1.071 7.476-3.217 2.146-2.088 2.185-4.619 2.241-7.601h0.012v-0.187c0-0.019 0.002-0.037 0.002-0.060h-0.002v-0.54h-0.004c0.043-1.763 0.062-3.279 1.285-4.527 1.266-1.291 2.552-1.94 4.401-1.94h0.449c1.219 0 2.259-0.43 3.122-1.289 0.857-0.861 1.289-1.901 1.289-3.116h-4.856z"></path>
<path d="M106.927 6.957l-0.086 0.089c0 0.086 0.086 0.086 0.086 0.173h-0.169c0.084 0.418-0.255 0.76 0 1.184-0.169 0-0.169 0.087-0.169 0.169s0 0.249 0.086 0.336c-0.255 0.087-0.171 0.426-0.255 0.597-0.507-0.255-1.017-0.255-1.524-0.171-0.087 0-0.173-0.084-0.173-0.084-0.255 0.171-0.591-0.086-0.758 0.171 0 0.084 0.084 0.253 0.167 0.332 0.255 0.259 0.591 0.424 0.846 0.595 0.171 0.34 0.426 0.593 0.595 0.935-0.253 0.42-0.764 0.677-0.933 1.265-0.084 0.255-0.422 0.255-0.507 0.432v0.165c0.086 0.165 0.336 0.087 0.507 0.165 0.338 0.089 0.68-0.251 0.933-0.165h0.678c0.086 0 0.169-0.086 0.253-0.086-0.084 0-0.084 0-0.084 0.086 0.084 0.426 0.338 0.762 0.338 1.188l-0.084 0.084c0.167 0.34 0.167 0.677 0.338 1.013h0.171l-0.087 0.087c0.593-0.591 0.846-1.444 1.442-2.035 0.334 0.426 0.931 0.426 1.267 0.68 0.257 0.338 0.764 0.677 1.106 0.422 0-0.084-0.089-0.338-0.089-0.422-0.253-0.169-0.336-0.426-0.336-0.762-0.087-0.255-0.257-0.511-0.34-0.851 0-0.080 0.084-0.080 0.084-0.163h-0.084c0-0.175 0.169-0.175 0.253-0.261h0.259c0.084-0.165 0.338 0 0.255-0.33 0.507 0 1.1-0.091 1.435-0.511v-0.171c-0.080-0.171-0.334-0.171-0.505-0.171-0.422-0.169-0.929-0.253-1.271-0.593-0.171-0.082-0.424 0-0.34-0.171 0-0.336 0-0.589 0.086-0.927 0.171-0.255 0.255-0.597 0.426-0.848 0.082-0.167 0.082-0.595-0.084-0.595-0.259-0.082-0.428 0.171-0.682 0.257-0.422 0.171-0.673 0.507-1.102 0.678-0.080 0.078-0.251 0.078-0.334 0.078-0.087-0.078-0.171-0.167-0.171-0.33 0 0-0.087-0.087-0.171-0.087-0.086-0.084 0-0.167-0.086-0.255-0.084-0.084-0.251-0.169-0.336-0.255 0-0.167-0.086-0.336-0.169-0.507-0.255-0.167-0.338-0.505-0.678-0.43z"></path>
<path d="M131.859 13.028c-2.344-2.148-5.155-3.231-8.433-3.231-3.285 0-6.094 1.083-8.427 3.231-2.337 2.15-3.509 4.765-3.509 7.836 0 3.073 1.172 5.676 3.509 7.811 2.333 2.131 5.142 3.2 8.427 3.2h1.58c4.422 0 4.677-4.386 4.677-4.386h-6.269c-1.971 0-3.629-0.642-4.969-1.932s-2.010-2.85-2.010-4.693c0-1.841 0.673-3.417 2.022-4.722 1.357-1.306 3.001-1.963 4.957-1.963 1.95 0 3.602 0.657 4.953 1.963 1.349 1.304 2.028 2.881 2.028 4.722l-0.014 11.010h5.002v-11.010c0-3.071-1.174-5.686-3.524-7.836z"></path>
<path d="M19.82 12.22c-2.29-2.086-5.043-3.136-8.258-3.136h-1.551c-4.333 0-4.582 4.296-4.582 4.296h6.139c1.936 0 3.559 0.628 4.873 1.889 1.312 1.271 1.969 3.83 1.969 5.63 0 1.81-0.659 3.349-1.981 4.628-1.334 1.283-2.945 1.921-4.862 1.921-1.907 0-3.528-0.638-4.846-1.921-1.174-1.131-1.825-2.473-1.96-4.018-0.018-0.398-0.025-0.741-0.025-1.013 0-0.016 0.002-0.031 0.004-0.045v-10.332l0.004-3.404h-0.004l-0.004-0.012v-2.132c-0.066-1.25-0.515-2.327-1.411-3.221-0.894-0.9-1.963-1.349-3.326-1.349v20.18c0.004 0.080 0.016 0.167 0.018 0.243l-0.002 0.266c-0.045 3.013 0.98 5.781 3.277 7.892 2.302 2.107 5.058 3.163 8.27 3.163 3.215 0 5.968-1.056 8.258-3.163 2.288-2.111 3.435-4.669 3.435-7.684 0-3.009-1.147-6.592-3.435-8.68z"></path>
<path d="M71.481 31.719c-3.087 0-5.727-1.067-7.92-3.211-2.191-2.146-3.289-4.763-3.289-7.85s1.098-5.713 3.289-7.877c2.193-2.162 4.833-3.241 7.92-3.241h6.572c0 1.217-0.435 2.255-1.302 3.108-0.869 0.857-1.915 1.291-3.136 1.291h-2.138c-1.814 0-3.357 0.657-4.632 1.985-1.277 1.322-1.913 2.898-1.913 4.733 0 1.833 0.632 3.406 1.899 4.704 1.267 1.308 2.813 1.963 4.646 1.963h2.138c1.221 0 2.267 0.43 3.136 1.283 0.867 0.859 1.302 1.899 1.302 3.11h-6.572z"></path>
<path d="M69.379 18.431h8.126c0 1.225-0.426 2.261-1.289 3.118-0.859 0.857-1.907 1.283-3.149 1.283h-3.688c-0.61 0-1.127-0.21-1.555-0.628-0.422-0.418-0.634-0.933-0.634-1.545 0-0.634 0.204-1.161 0.622-1.586 0.42-0.426 0.939-0.642 1.567-0.642z"></path>
<path d="M57.976 10.838c-0.918-0.919-2.014-1.376-3.289-1.376v11.096c-0.002 1.829-0.64 3.402-1.913 4.714-1.275 1.322-2.821 1.987-4.634 1.987-1.849 0-3.406-0.657-4.673-1.969-1.266-1.318-1.901-2.9-1.901-4.751v-6.409c0-1.283-0.459-2.377-1.372-3.291-0.918-0.919-2.012-1.376-3.287-1.376v11.077c0 3.106 1.093 5.737 3.287 7.9 2.191 2.154 4.84 3.237 7.947 3.237 3.089 0 5.731-1.091 7.92-3.254 2.193-2.164 3.289-4.792 3.289-7.883v-6.409c0-1.283-0.459-2.377-1.372-3.291z"></path>
</symbol>

<symbol id="icon-Yodel_(company)_logo" viewBox="0 0 120 32">
<title>Yodel_(company)_logo</title>
<path d="M9.032 20.097l-9.032-19.26h8.374l4.546 12.142 4.546-12.142h8.314l-8.972 19.26v11.065h-7.776z"></path>
<path d="M55.566 0.837h10.049c3.409 0 9.45 0 13.398 5.622 2.093 2.871 2.811 6.101 2.811 9.391 0 8.254-4.127 15.252-15.611 15.252h-10.647v-30.265zM63.342 24.344h3.29c5.802 0 7.417-4.007 7.417-8.314 0-1.735-0.359-3.888-1.495-5.622-0.897-1.376-2.452-2.811-5.921-2.811h-3.35v16.748z"></path>
<path d="M83.619 0.837h17.166v6.819h-9.391v4.665h9.092v6.819h-9.092v5.204h9.391v6.819h-17.166z"></path>
<path d="M102.938 0.837h7.716v23.507h8.972v6.819h-16.688z"></path>
<path d="M22.25 15.97c0-8.793 7.178-15.97 15.97-15.97s15.97 7.178 15.97 15.97c0 8.852-7.178 15.97-15.97 15.97s-15.97-7.118-15.97-15.97zM38.221 25.002c4.965 0 9.032-4.067 9.032-9.032s-4.007-9.032-9.032-9.032c-4.965 0-9.032 4.007-9.032 9.032 0.060 4.964 4.067 9.032 9.032 9.032z"></path>
</symbol>

<symbol id="icon-West-Japan-Railway-Company-Logo" viewBox="0 0 48 32">
<title>West-Japan-Railway-Company-Logo</title>
<path d="M5.883 13.898l4.577-0.005-0.004 5.684c-0.008 1.097 2.967 1.68 3.284 1.671l1.489-0.011c0.252-0.002 4.447-0.026 4.445-1.992l0.129-13.212 18.038-0.018c1.817 0.023 3.809 2.667 3.861 5.336l0.015 1.332c-0.008 2.718-1.935 5.438-3.404 5.422l-2.507 0.058 6.165 7.139-6.121-0.005-8.924-11.311 9.164-0.018c0.298-0.002 1.055-0.795 1.057-1.548l-0.052-0.99c-0.018-0.425-0.622-1.068-0.987-1.082l-11.8-0.114-0.057 9.993c0.006 3.703-4.679 5.198-7.788 5.205l-2.746 0.002c-1.383-0.026-7.887-0.746-7.89-5.169l0.054-6.368z"></path>
</symbol>

</defs>
</svg>
