<svg style="position: absolute; width: 0; height: 0; overflow: hidden;" version="1.1" xmlns="http://www.w3.org/2000/svg" xmlns:xlink="http://www.w3.org/1999/xlink">
<defs>
<symbol id="icon-photo-camera" viewBox="0 0 32 32">
<title>photo-camera</title>
<path d="M29.441 8.267h-4.546l-2.133-5.333h-13.522l-2.133 5.333h-0.706v-2.667h-3.2v2.667h-0.641c-1.412 0-2.559 1.148-2.559 2.559v15.663c0 1.421 1.156 2.578 2.578 2.578h26.845c1.421 0 2.578-1.156 2.578-2.578v-15.663c0-1.412-1.148-2.559-2.559-2.559zM4.267 6.667h1.067v1.6h-1.067v-1.6zM30.933 26.489c0 0.834-0.678 1.511-1.511 1.511h-26.845c-0.833 0-1.511-0.678-1.511-1.511v-15.663c0-0.823 0.67-1.493 1.493-1.493h5.268l2.133-5.333h12.078l2.133 5.333h5.268c0.823 0 1.493 0.67 1.493 1.493v15.663z"></path>
<path d="M16 7.733c-5.293 0-9.6 4.307-9.6 9.6s4.307 9.6 9.6 9.6 9.6-4.307 9.6-9.6-4.307-9.6-9.6-9.6zM16 25.867c-4.705 0-8.533-3.828-8.533-8.533s3.828-8.533 8.533-8.533 8.533 3.828 8.533 8.533-3.828 8.533-8.533 8.533z"></path>
<path d="M16 10.933c-3.529 0-6.4 2.871-6.4 6.4s2.871 6.4 6.4 6.4 6.4-2.871 6.4-6.4-2.871-6.4-6.4-6.4zM16 22.667c-2.941 0-5.333-2.393-5.333-5.333s2.393-5.333 5.333-5.333 5.333 2.393 5.333 5.333-2.393 5.333-5.333 5.333z"></path>
<path d="M27.733 10.4c-1.177 0-2.133 0.957-2.133 2.133s0.957 2.133 2.133 2.133 2.133-0.957 2.133-2.133-0.957-2.133-2.133-2.133zM27.733 13.6c-0.588 0-1.067-0.478-1.067-1.067s0.478-1.067 1.067-1.067 1.067 0.478 1.067 1.067-0.478 1.067-1.067 1.067z"></path>
</symbol>
<symbol id="icon-interface" viewBox="0 0 32 32">
<title>interface</title>
<path d="M17.957 2.308c-0.529 0-1.058 0.11-1.506 0.332l-15.652 7.713c-0.449 0.221-0.797 0.584-0.797 1.053s0.348 0.832 0.797 1.053l8.804 4.338c0.065 0.032 0.138 0.048 0.21 0.047l8.804-0.161c0.067-0.001 0.133-0.017 0.194-0.047l12.392-6.106c0.449-0.221 0.797-0.584 0.797-1.053s-0.348-0.832-0.797-1.053l-11.739-5.785c-0.449-0.221-0.977-0.332-1.506-0.332zM17.957 3.257c0.414 0 0.828 0.067 1.102 0.203l11.739 5.785c0.274 0.135 0.287 0.237 0.287 0.233s-0.013 0.098-0.287 0.233l-12.189 6.006-4.363-2.15c-0.069-0.034-0.145-0.050-0.222-0.047-0.063 0.003-0.126 0.019-0.183 0.047l-4.363 2.15-8.276-4.078c-0.274-0.135-0.287-0.237-0.287-0.233s0.013-0.098 0.287-0.233l15.652-7.713c0.274-0.135 0.688-0.202 1.102-0.202zM19.252 5.39c-0.126 0.003-0.226 0.108-0.222 0.235 0.002 0.086 0.053 0.164 0.131 0.2l6.522 3.214c0.112 0.059 0.25 0.016 0.309-0.096s0.016-0.25-0.096-0.309c-0.004-0.002-0.007-0.004-0.011-0.005l-6.522-3.214c-0.034-0.017-0.072-0.026-0.11-0.025zM15.991 6.997c-0.126 0.004-0.226 0.109-0.222 0.235 0.002 0.086 0.053 0.163 0.13 0.2l6.522 3.214c0.112 0.059 0.25 0.016 0.309-0.096s0.016-0.25-0.096-0.309c-0.004-0.002-0.007-0.004-0.011-0.005l-6.522-3.214c-0.034-0.017-0.072-0.026-0.11-0.025zM12.731 8.604c-0.126 0.004-0.226 0.109-0.222 0.235 0.002 0.086 0.053 0.163 0.13 0.2l6.522 3.214c0.113 0.056 0.25 0.009 0.306-0.104s0.009-0.25-0.104-0.306l-6.522-3.214c-0.034-0.017-0.072-0.026-0.11-0.025zM7.095 8.764c-0.036 0-0.071 0.009-0.103 0.025l-4.891 2.41c-0.113 0.056-0.16 0.193-0.104 0.306 0.022 0.045 0.059 0.082 0.104 0.104l2.283 1.125c0.112 0.059 0.25 0.016 0.309-0.096s0.016-0.25-0.096-0.309c-0.004-0.002-0.007-0.004-0.011-0.005l-1.866-0.92 4.475-2.205c0.114-0.054 0.163-0.191 0.108-0.305-0.038-0.080-0.119-0.131-0.207-0.131zM14.044 14.485l2.673 1.317-5.552 0.101 2.879-1.418zM31.361 14.542c-0.087-0-0.174 0.020-0.252 0.059l-17.255 8.381-13.039-6.546c-0.272-0.141-0.607-0.034-0.748 0.238s-0.034 0.607 0.238 0.748c0.004 0.002 0.008 0.004 0.012 0.006l13.284 6.669c0.154 0.078 0.336 0.079 0.492 0.003l17.502-8.5c0.278-0.13 0.397-0.46 0.267-0.738-0.091-0.194-0.286-0.319-0.501-0.32zM19.332 18.982c-0.044 0-0.087 0.011-0.125 0.031l-5.425 2.713-4.871-2.49c-0.137-0.070-0.304-0.015-0.373 0.121s-0.016 0.303 0.121 0.373l4.996 2.553c0.079 0.040 0.172 0.041 0.25 0.001l5.551-2.775c0.138-0.067 0.196-0.233 0.129-0.371-0.047-0.097-0.145-0.158-0.252-0.157zM31.361 20.079c-0.087-0-0.174 0.020-0.252 0.059l-17.255 8.38-13.039-6.546c-0.271-0.144-0.607-0.040-0.75 0.23s-0.040 0.607 0.23 0.75c0.007 0.004 0.015 0.008 0.022 0.011l13.284 6.669c0.154 0.078 0.336 0.079 0.492 0.003l17.502-8.5c0.278-0.13 0.397-0.46 0.267-0.738-0.091-0.194-0.286-0.319-0.501-0.32zM19.332 24.518c-0.044 0-0.087 0.011-0.125 0.031l-5.425 2.713-4.871-2.489c-0.135-0.072-0.303-0.020-0.375 0.115s-0.020 0.303 0.115 0.375c0.002 0.001 0.005 0.003 0.008 0.004l4.996 2.553c0.079 0.040 0.172 0.041 0.25 0.001l5.551-2.775c0.138-0.067 0.196-0.233 0.129-0.371-0.047-0.097-0.145-0.158-0.252-0.157z"></path>
</symbol>
<symbol id="icon-computer" viewBox="0 0 32 32">
<title>computer</title>
<path d="M30.068 1.746h-28.136c-1.065 0-1.932 0.867-1.932 1.932v19.426c0 1.065 0.867 1.932 1.932 1.932h9.641v1.406c0 1.289-1.048 2.337-2.337 2.337h-2.125c-0.407 0-0.738 0.33-0.738 0.738s0.33 0.738 0.738 0.738h17.777c0.407 0 0.738-0.33 0.738-0.738s-0.33-0.738-0.738-0.738h-2.125c-1.289 0-2.337-1.048-2.337-2.337v-1.406h9.641c1.065 0 1.932-0.867 1.932-1.932v-19.426c0-1.065-0.866-1.932-1.932-1.932zM12.245 28.779c0.503-0.646 0.804-1.457 0.804-2.337v-1.406h5.903v1.406c0 0.88 0.301 1.691 0.804 2.337h-7.51zM30.525 23.104c0 0.252-0.205 0.456-0.456 0.456h-28.136c-0.252 0-0.457-0.205-0.457-0.456v-3.877h29.049v3.877zM30.525 17.752h-29.049v-14.074c0-0.252 0.205-0.457 0.457-0.457h28.136c0.252 0 0.457 0.205 0.457 0.457v14.074z"></path>
<path d="M16.796 21.394c0 0.44-0.356 0.796-0.796 0.796s-0.796-0.356-0.796-0.796c0-0.44 0.356-0.796 0.796-0.796s0.796 0.356 0.796 0.796z"></path>
<path d="M17.265 6.828c-0.288-0.288-0.755-0.288-1.043 0l-5.213 5.213c-0.288 0.288-0.288 0.755 0 1.043 0.144 0.144 0.333 0.216 0.522 0.216s0.378-0.072 0.522-0.216l5.213-5.213c0.288-0.288 0.288-0.755 0-1.043z"></path>
<path d="M20.355 9.85c-0.288-0.288-0.755-0.288-1.043-0l-2.077 2.077c-0.288 0.288-0.288 0.755 0 1.043 0.144 0.144 0.333 0.216 0.522 0.216s0.378-0.072 0.522-0.216l2.077-2.077c0.288-0.288 0.288-0.755 0-1.043z"></path>
</symbol>
</defs>
</svg>
