<svg style="position: absolute; width: 0; height: 0; overflow: hidden;" version="1.1" xmlns="http://www.w3.org/2000/svg" xmlns:xlink="http://www.w3.org/1999/xlink">
<defs>

<symbol id="icon-tumblr-logo" viewBox="0 0 32 32">
<title>tumblr-logo</title>
<path d="M21.021 26.792c-0.93 0-1.743-0.215-2.437-0.646-0.542-0.32-0.902-0.736-1.083-1.25-0.195-0.5-0.292-1.695-0.292-3.584v-8.208h7.583v-5.021h-7.583v-8.083h-4.563c-0.208 1.639-0.583 3-1.125 4.084-0.542 1.069-1.257 1.986-2.146 2.75-0.889 0.75-1.965 1.334-3.229 1.75v4.521h3.542v11.229c0 1.486 0.153 2.604 0.458 3.354 0.292 0.75 0.841 1.479 1.646 2.188 0.833 0.694 1.792 1.215 2.875 1.562 1.125 0.375 2.417 0.563 3.875 0.563 1.333 0 2.535-0.132 3.604-0.396 1.056-0.236 2.292-0.688 3.709-1.354v-5.042c-1.597 1.056-3.208 1.584-4.833 1.584z"></path>
</symbol>

<symbol id="icon-vimeo-logo" viewBox="0 0 32 32">
<title>vimeo-logo</title>
<path d="M27.322 2.139c-4.449-0.145-7.459 2.35-9.035 7.489 0.812-0.334 1.601-0.503 2.37-0.503 1.622 0 2.34 0.91 2.149 2.736-0.095 1.106-0.812 2.714-2.149 4.825-1.342 2.115-2.345 3.17-3.010 3.17-0.865 0-1.652-1.634-2.37-4.897-0.241-0.961-0.672-3.408-1.289-7.348-0.578-3.649-2.107-5.354-4.592-5.114-1.051 0.097-2.626 1.059-4.728 2.882-1.534 1.393-3.087 2.786-4.667 4.178l1.505 1.943c1.436-1.009 2.276-1.511 2.51-1.511 1.101 0 2.13 1.727 3.087 5.182 0.858 3.173 1.723 6.341 2.585 9.509 1.284 3.457 2.867 5.186 4.728 5.186 3.011 0 6.698-2.832 11.046-8.498 4.206-5.424 6.378-9.698 6.524-12.822 0.193-4.175-1.361-6.313-4.662-6.408z"></path>
</symbol>

<symbol id="icon-wi-fi-signal" viewBox="0 0 32 32">
<title>wi-fi-signal</title>
<path d="M0 0v4.987c14.919 0 27.013 12.095 27.013 27.013h4.987c0-17.673-14.327-32-32-32zM0 9.974v4.987c9.41 0 17.039 7.629 17.039 17.039h4.987c0-12.165-9.861-22.026-22.026-22.026zM4.779 22.442c-2.639 0-4.779 2.14-4.779 4.779 0 2.64 2.14 4.779 4.779 4.779 2.64 0 4.78-2.139 4.78-4.779-0-2.639-2.14-4.779-4.78-4.779z"></path>
</symbol>

<symbol id="icon-skype-logo" viewBox="0 0 32 32">
<title>skype-logo</title>
<path d="M30.664 18.316c0.119-0.756 0.182-1.528 0.182-2.317 0-8.2-6.647-14.846-14.847-14.846-0.787 0-1.562 0.065-2.317 0.183-1.367-0.846-2.981-1.336-4.711-1.336-4.955 0-8.972 4.016-8.972 8.972 0 1.729 0.49 3.342 1.336 4.712-0.117 0.757-0.181 1.527-0.181 2.316 0 8.2 6.647 14.845 14.845 14.845 0.787 0 1.563-0.061 2.318-0.18 1.369 0.844 2.981 1.335 4.71 1.335 4.956 0 8.972-4.017 8.972-8.972 0-1.73-0.489-3.342-1.336-4.711zM23.048 22.751c-0.628 0.904-1.551 1.611-2.756 2.119-1.208 0.509-2.636 0.763-4.285 0.763-1.976 0-3.612-0.346-4.904-1.044-0.915-0.5-1.66-1.171-2.232-2.007-0.574-0.837-0.864-1.657-0.864-2.456 0-0.472 0.18-0.882 0.53-1.216 0.354-0.337 0.809-0.506 1.347-0.506 0.44 0 0.819 0.133 1.127 0.395 0.306 0.263 0.562 0.645 0.772 1.149 0.251 0.584 0.524 1.072 0.815 1.462 0.289 0.385 0.695 0.706 1.221 0.957 0.52 0.252 1.213 0.378 2.080 0.378 1.186 0 2.145-0.257 2.879-0.763 0.737-0.511 1.092-1.132 1.092-1.883 0-0.599-0.191-1.075-0.583-1.446-0.395-0.376-0.906-0.662-1.539-0.861-0.636-0.202-1.489-0.416-2.559-0.641-1.436-0.314-2.638-0.678-3.611-1.098-0.974-0.421-1.75-0.996-2.325-1.722-0.576-0.733-0.864-1.645-0.864-2.725 0-1.030 0.303-1.95 0.911-2.752 0.607-0.804 1.485-1.419 2.63-1.847 1.141-0.428 2.484-0.643 4.023-0.643 1.231 0 2.295 0.142 3.196 0.426 0.899 0.285 1.648 0.662 2.247 1.135 0.595 0.472 1.033 0.969 1.31 1.491 0.277 0.523 0.417 1.035 0.417 1.534 0 0.464-0.18 0.885-0.53 1.253s-0.799 0.557-1.322 0.556c-0.472 0-0.842-0.109-1.099-0.339-0.25-0.223-0.513-0.578-0.797-1.072-0.359-0.69-0.789-1.228-1.289-1.612-0.487-0.377-1.29-0.574-2.407-0.572-1.034 0-1.861 0.211-2.486 0.624-0.628 0.42-0.929 0.907-0.93 1.478 0.001 0.358 0.104 0.659 0.311 0.917 0.21 0.26 0.502 0.486 0.878 0.676 0.376 0.193 0.758 0.342 1.142 0.45 0.389 0.11 1.034 0.269 1.93 0.48 1.124 0.242 2.144 0.513 3.060 0.808 0.915 0.297 1.695 0.654 2.34 1.080 0.65 0.425 1.158 0.966 1.521 1.621 0.365 0.655 0.547 1.456 0.547 2.397 0.001 1.134-0.314 2.154-0.944 3.057z"></path>
</symbol>

<symbol id="icon-linkedin-logo" viewBox="0 0 32 32">
<title>linkedin-logo</title>
<path d="M32 19.458v11.831h-6.859v-11.038c0-2.773-0.992-4.665-3.475-4.665-1.895 0-3.023 1.275-3.519 2.509-0.181 0.441-0.227 1.055-0.227 1.672v11.522h-6.861c0 0 0.092-18.695 0-20.632h6.86v2.925c-0.014 0.022-0.032 0.045-0.045 0.067h0.045v-0.067c0.911-1.404 2.539-3.409 6.183-3.409 4.514-0 7.898 2.949 7.898 9.286zM3.882 0.711c-2.347 0-3.882 1.54-3.882 3.564 0 1.98 1.491 3.567 3.791 3.567h0.046c2.393 0 3.881-1.586 3.881-3.567-0.045-2.025-1.488-3.564-3.835-3.564zM0.407 31.289h6.858v-20.632h-6.858v20.632z"></path>
</symbol>

<symbol id="icon-google-plus-logo" viewBox="0 0 32 32">
<title>google-plus-logo</title>
<path d="M20.694 0h-7.632c-3.401 0-5.755 0.746-7.873 2.496-1.666 1.438-2.661 3.527-2.661 5.589 0 3.177 2.422 6.554 6.911 6.554 0.432 0 0.909-0.044 1.331-0.084l-0.062 0.151c-0.18 0.432-0.351 0.84-0.351 1.477 0 1.239 0.598 2.004 1.176 2.742l0.073 0.094-0.129 0.009c-1.854 0.127-5.304 0.364-7.824 1.913-2.977 1.77-3.208 4.344-3.208 5.091 0 2.97 2.768 5.969 8.953 5.969 7.191 0 10.954-3.968 10.954-7.886 0.001-2.899-1.699-4.33-3.503-5.849l-1.522-1.184c-0.47-0.39-1.056-0.874-1.056-1.773 0-0.883 0.586-1.466 1.103-1.98l0.054-0.055c1.644-1.294 3.506-2.762 3.506-5.937 0-3.192-1.994-4.841-2.954-5.634h2.533c0.031 0 0.062-0.009 0.088-0.025l2.182-1.372c0.062-0.039 0.091-0.115 0.071-0.186s-0.085-0.119-0.158-0.119zM11.439 30.251c-4.384 0-7.329-2.047-7.329-5.095 0-1.99 1.205-3.436 3.577-4.295 1.9-0.639 4.353-0.671 4.377-0.671 0.415 0 0.624 0 0.956 0.042 3.067 2.183 4.542 3.329 4.542 5.512-0 2.781-2.347 4.508-6.123 4.508zM11.398 13.469c-3.679 0-5.206-4.836-5.206-7.425 0-1.317 0.299-2.327 0.915-3.090 0.669-0.836 1.813-1.377 2.917-1.377 3.378 0 5.246 4.54 5.246 7.678 0 0.495 0 2.001-1.040 3.047-0.7 0.698-1.838 1.167-2.832 1.167z"></path>
<path d="M31.39 14.946h-4.021v-4.007c0-0.091-0.074-0.165-0.165-0.165h-1.73c-0.091 0-0.165 0.074-0.165 0.165v4.007h-4.001c-0.091 0-0.165 0.074-0.165 0.165v1.753c0 0.091 0.074 0.165 0.165 0.165h4.001v4.033c0 0.091 0.074 0.165 0.165 0.165h1.73c0.091 0 0.165-0.074 0.165-0.165v-4.034h4.021c0.091 0 0.165-0.074 0.165-0.165v-1.752c0-0.092-0.074-0.165-0.165-0.165z"></path>
</symbol>

<symbol id="icon-twitter-logo-silhouette" viewBox="0 0 32 32">
<title>twitter-logo-silhouette</title>
<path d="M32 6.079c-1.178 0.522-2.442 0.876-3.769 1.034 1.356-0.812 2.394-2.1 2.885-3.629-1.272 0.752-2.675 1.298-4.171 1.594-1.198-1.278-2.901-2.074-4.791-2.074-3.625 0-6.565 2.939-6.565 6.563 0 0.514 0.058 1.016 0.17 1.496-5.455-0.274-10.292-2.887-13.529-6.859-0.566 0.968-0.888 2.096-0.888 3.299 0 2.278 1.16 4.287 2.919 5.463-1.076-0.036-2.088-0.332-2.973-0.824v0.082c0 3.179 2.264 5.833 5.265 6.437-0.55 0.148-1.13 0.23-1.73 0.23-0.424 0-0.834-0.042-1.236-0.122 0.836 2.61 3.259 4.507 6.131 4.559-2.246 1.76-5.077 2.805-8.152 2.805-0.53 0-1.052-0.032-1.566-0.090 2.905 1.866 6.355 2.953 10.062 2.953 12.076 0 18.677-10.002 18.677-18.677l-0.022-0.85c1.29-0.92 2.405-2.076 3.283-3.391z"></path>
</symbol>

<symbol id="icon-facebook-logo" viewBox="0 0 32 32">
<title>facebook-logo</title>
<path d="M23.999 0.007l-4.15-0.007c-4.662 0-7.675 3.091-7.675 7.875v3.631h-4.172c-0.361 0-0.652 0.292-0.652 0.653v5.261c0 0.361 0.292 0.652 0.652 0.652h4.172v13.275c0 0.361 0.292 0.653 0.652 0.653h5.444c0.361 0 0.652-0.292 0.652-0.652v-13.275h4.878c0.361 0 0.652-0.292 0.652-0.652l0.002-5.261c0-0.173-0.069-0.339-0.191-0.461s-0.289-0.191-0.462-0.191h-4.88v-3.078c0-1.479 0.353-2.23 2.28-2.23l2.795-0.001c0.36 0 0.652-0.292 0.652-0.652v-4.885c0-0.36-0.292-0.652-0.651-0.652z"></path>
</symbol>

</defs>
</svg>
