<svg style="position:absolute;width:0;height:0" xmlns="http://www.w3.org/2000/svg" overflow="hidden"><defs><symbol id="icon-discuss-issue" viewBox="0 0 32 32"><title>discuss-issue</title><path d="M24.483 8.297c0 .969-.706 1.559-1.221 1.992-.195.164-.558.463-.558.575a.781.781 0 0 1-.787.788h-.007a.783.783 0 0 1-.793-.775c-.007-.859.62-1.374 1.124-1.797.395-.332.655-.566.655-.779a.786.786 0 0 0-1.57 0 .793.793 0 1 1-1.586 0 2.372 2.372 0 0 1 4.744-.003zm-2.55 4.087a.779.779 0 0 0-.776.793v.006c0 .438.338.79.776.79a.796.796 0 0 0 0-1.589zM5.941 17.911a.793.793 0 1 0 0 1.586h.066a.793.793 0 1 0 0-1.586h-.066zm2.757 0a.793.793 0 1 0 0 1.586h.066a.793.793 0 1 0 0-1.586h-.066zM32 5.239v8.93a3.814 3.814 0 0 1-3.81 3.83H17.901c-.201 0-.367-.001-.505-.004a4.211 4.211 0 0 0-.372.003 5.262 5.262 0 0 0-.386.338l-.208.189-2.911 2.653a.81.81 0 1 1-1.352-.586v-8.411H3.856c-1.24 0-2.267 1.016-2.267 2.255v8.93c0 1.24 1.028 2.214 2.267 2.214h11.493c.198 0 .383.091.529.224l2.372 2.187V20.45a.793.793 0 1 1 1.586 0v9.339c0 .314-.18.595-.467.722a.766.766 0 0 1-.314.063.803.803 0 0 1-.535-.216l-3.478-3.192H3.857c-2.114 0-3.854-1.686-3.854-3.801v-8.93c0-2.114 1.74-3.842 3.854-3.842h8.311V5.238c0-2.114 1.753-3.813 3.867-3.813h12.158a3.8 3.8 0 0 1 3.81 3.813zm-1.587 0a2.21 2.21 0 0 0-2.223-2.226H16.032c-1.24 0-2.281.986-2.281 2.226v13.555l1.595-1.442c.074-.067.157-.129.217-.185.728-.671.915-.779 1.865-.759.13.003.284.004.472.004h10.289a2.226 2.226 0 0 0 2.223-2.243v-8.93z"/></symbol><symbol id="icon-light-bulb" viewBox="0 0 32 32"><title>light-bulb</title><path d="M21.163 8.506A7.411 7.411 0 0 0 15.7 6.431c-3.931.156-7.138 3.481-7.15 7.419a7.422 7.422 0 0 0 1.725 4.781 10.785 10.785 0 0 1 2.5 6.887s-.169 1.15.65 1.15h5.15c.837 0 .65-1.15.65-1.15 0-2.45.9-4.875 2.606-7.012a7.382 7.382 0 0 0 1.619-4.631 7.378 7.378 0 0 0-2.288-5.369zm-.35 9.188c-1.856 2.325-2.85 4.975-2.887 7.675h-3.85a12.101 12.101 0 0 0-2.8-7.569 6.143 6.143 0 0 1-1.419-3.944c.012-3.25 2.656-5.994 5.9-6.125a6.104 6.104 0 0 1 4.506 1.713 6.086 6.086 0 0 1 1.887 4.431 6.084 6.084 0 0 1-1.337 3.819zm3.762-13.457a.646.646 0 0 0-.919 0l-1.587 1.587c-.256.256-.256.669 0 .919s.669.256.919 0l1.587-1.587a.646.646 0 0 0 0-.919zM18.6 27.556h-5.2a.65.65 0 1 0 0 1.3h5.2a.65.65 0 1 0 0-1.3zm-.981 2.45h-3.231a.65.65 0 1 0 0 1.3h3.231a.65.65 0 1 0 0-1.3zM16 4.231a.65.65 0 0 0 .65-.65V1.337a.65.65 0 1 0-1.3 0v2.244c0 .362.287.65.65.65zM9.931 6.75a.646.646 0 0 0 0-.919L8.343 4.244c-.256-.256-.669-.256-.919 0s-.256.669 0 .919L9.011 6.75c.256.25.669.25.919 0zm17.544 5.412h-2.244a.65.65 0 1 0 0 1.3h2.244a.65.65 0 1 0 0-1.3zm-20.706 0H4.525a.65.65 0 1 0 0 1.3h2.244a.65.65 0 1 0 0-1.3z"/></symbol><symbol id="icon-like" viewBox="0 0 32 32"><title>like</title><path d="M31.947 9.996c-.467-5.141-4.106-8.871-8.66-8.871-3.034 0-5.812 1.633-7.375 4.249-1.549-2.651-4.213-4.25-7.199-4.25-4.553 0-8.193 3.73-8.66 8.871-.037.227-.188 1.422.272 3.371.663 2.811 2.196 5.368 4.43 7.393l11.148 10.117 11.34-10.116c2.235-2.025 3.767-4.582 4.43-7.394.46-1.948.309-3.144.273-3.371zm-1.471 3.088c-.606 2.568-2.009 4.907-4.056 6.76L15.911 29.22 5.582 19.847c-2.05-1.857-3.453-4.196-4.059-6.763-.436-1.844-.257-2.886-.256-2.893l.009-.062c.4-4.504 3.527-7.774 7.436-7.774 2.884 0 5.424 1.772 6.629 4.625l.567 1.343.567-1.343c1.186-2.809 3.859-4.624 6.812-4.624 3.909 0 7.036 3.27 7.444 7.832.001.01.18 1.052-.255 2.897z"/></symbol><symbol id="icon-glasses" viewBox="0 0 32 32"><title>glasses</title><path d="M32 13.933h-1.716c-.866-2.572-3.296-4.432-6.157-4.432-2.927 0-5.406 1.945-6.217 4.61-.513-.339-1.172-.549-1.91-.549s-1.396.21-1.91.549c-.812-2.665-3.291-4.61-6.218-4.61-2.861 0-5.29 1.86-6.157 4.432H0v1.333h1.417a6.59 6.59 0 0 0-.044.734c0 3.584 2.916 6.499 6.5 6.499s6.5-2.915 6.5-6.499c0-.037-.005-.073-.006-.111h.005c0-.471.669-.995 1.629-.995s1.629.525 1.629.995h.005c-.001.037-.006.073-.006.111 0 3.584 2.915 6.499 6.499 6.499s6.5-2.915 6.5-6.499c0-.249-.017-.493-.044-.734h1.417v-1.333zM7.872 21.166c-2.849 0-5.166-2.318-5.166-5.166s2.318-5.167 5.166-5.167c2.849 0 5.167 2.318 5.167 5.167s-2.318 5.166-5.167 5.166zm16.255 0c-2.848 0-5.166-2.318-5.166-5.166s2.318-5.167 5.166-5.167c2.849 0 5.167 2.318 5.167 5.167s-2.318 5.166-5.167 5.166z"/></symbol></defs></svg>