<svg id="Layer_1" xmlns="http://www.w3.org/2000/svg" viewBox="0 0 426.667 426.667"><g fill="#f05228"><path d="M213.333 426.667c-88.508 0-160.516-72.009-160.516-160.516h46.652c0 62.788 51.085 113.869 113.869 113.869 62.793 0 113.873-51.081 113.873-113.869h46.643c-.004 88.507-72.013 160.516-160.521 160.516z"/><path d="M189.995 105.634h46.652v297.707h-46.652z"/><path d="M144.742 147.115h137.173v46.643H144.742zm68.591-18.155c-35.55 0-64.482-28.924-64.482-64.482C148.851 28.924 177.783 0 213.333 0c35.558 0 64.482 28.924 64.482 64.474 0 35.558-28.923 64.486-64.482 64.486zm0-82.317c-9.835 0-17.835 8-17.835 17.835s8 17.835 17.835 17.835 17.835-8 17.835-17.835-8-17.835-17.835-17.835zM34.334 266.15l41.809-72.418 41.809 72.418zm274.381 0l41.809-72.418 41.809 72.418z"/></g></svg>