<svg style="position:absolute;width:0;height:0" xmlns="http://www.w3.org/2000/svg" overflow="hidden"><defs><symbol id="icon-AnD_Company_logo" viewBox="0 0 111 32"><title>AnD_Company_logo</title><path d="M22.609.545v5.927h2.328L4.835 25.073H.545v6.382h22.428v-6.382h-3.518l1.126-.913h12.513v.913h-3.556v6.382h22.249v-6.382h-3.922V12.8l17.98 12.273h-2.662v6.382h33.736l1.824-.547 1.732-.547 1.549-.73 1.46-.913 1.458-1.094 1.368-1.185 1.094-1.458.913-1.46.728-1.824.547-1.824.275-1.822.183-1.915-.183-2.098-.275-2.005-.547-1.824-.728-1.641-.913-1.551-.547-.728-.547-.638-.638-.638-.73-.638-1.458-1.094-1.46-.913-1.549-.73-1.824-.636-1.732-.458H63.183v5.927h3.831v6.076L49.325.636l-.092-.092H22.609zm59.175 5.927h9.391l.819.274.638.272 1.277 1.004.638.728.547.73.364.913.366 1.002.547 2.096.183 2.462-.092 1.185-.366 2.371-.272.913-.366.911-.911 1.641-.638.639-1.277 1.002-.638.275-.638.183h-9.572V6.472zm-48.69 6.071v5.599H26.95l6.144-5.599z"/></symbol><symbol id="icon-Biocon_Logo" viewBox="0 0 81 32"><title>Biocon_Logo</title><path d="M14.418.402c.432-.054.889-.042 1.287.152.751.33 1.274 1.104 1.325 1.92.023.203-.026.402-.034.604-.003.514.039 1.038.224 1.522a4.103 4.103 0 0 0 1.39 1.874c.361.252.762.445 1.178.585.734.26 1.299.935 1.435 1.701a2.197 2.197 0 0 1-.256 1.548c-.447.775-1.389 1.233-2.274 1.079-.777-.049-1.581.068-2.273.441-.712.375-1.338.975-1.606 1.748-.139.356-.121.744-.119 1.118-.007.603.277 1.165.61 1.651l.009.013c.444.617 1.073 1.09 1.768 1.392.266.106.546.182.795.326.685.401 1.136 1.188 1.095 1.986.021 1.144-1.004 2.188-2.15 2.179-.589-.03-1.188-.019-1.765.113-.792.196-1.484.693-2.004 1.313a3.614 3.614 0 0 0-.687 1.277c-.22.72-.824 1.314-1.557 1.497a2.456 2.456 0 0 1-1.15-.015c-.692-.19-1.286-.725-1.518-1.407a2.246 2.246 0 0 1 .145-1.782c.389-.718 1.179-1.216 2.005-1.189.806.084 1.655.025 2.396-.33a.067.067 0 0 0 .012-.006l.078-.039a.067.067 0 0 0 .012-.006c.602-.322 1.168-.772 1.486-1.39a.039.039 0 0 0 .006-.011c.483-.934.329-2.107-.238-2.97l-.006-.01a4.485 4.485 0 0 0-1.82-1.573c-.262-.111-.543-.182-.79-.328-.576-.316-1-.901-1.104-1.552-.085-.545.012-1.127.322-1.589.465-.746 1.396-1.155 2.261-1.007.639.006 1.298-.041 1.894-.29.731-.288 1.402-.79 1.783-1.489.41-.747.416-1.675.095-2.455-.468-1.133-1.517-1.966-2.673-2.32a2.237 2.237 0 0 1-1.376-1.646 2.188 2.188 0 0 1 .148-1.345 2.258 2.258 0 0 1 1.641-1.29z"/><path d="M9.542 6.344a2.222 2.222 0 0 1 1.444-.965 2.295 2.295 0 0 1 2.02.675c.369.389.607.917.598 1.459.068 1.081-.797 2.116-1.862 2.274-.436.051-.874-.029-1.311.003-.283.004-.561.066-.839.109l-.093.033c-.749.253-1.458.691-1.932 1.334a2.752 2.752 0 0 0-.405 2.356c.253.864.85 1.596 1.567 2.125.334.231.694.433 1.085.548.751.252 1.36.921 1.496 1.708.038.389.045.797-.098 1.168-.236.635-.764 1.163-1.413 1.368-.364.124-.757.133-1.137.09-.422-.044-.842.036-1.257.098l-.096.029c-.083.029-.168.05-.252.077a.078.078 0 0 0-.014.005l-.129.045-.011.004c-.172.064-.339.14-.501.227l-.012.006c-.74.392-1.342 1.068-1.571 1.88-.171.58-.111 1.212.109 1.772.386.99 1.2 1.786 2.166 2.213a.104.104 0 0 1 .01.004c.269.1.549.179.802.32a2.229 2.229 0 0 1 1.134 1.765 2.26 2.26 0 0 1-.518 1.634 2.257 2.257 0 0 1-1.728.794c-.61.007-1.202-.286-1.605-.737a2.236 2.236 0 0 1-.573-1.695c.074-.587-.008-1.185-.178-1.748-.287-.783-.788-1.501-1.483-1.974a4.233 4.233 0 0 0-1.069-.525 2.283 2.283 0 0 1-1.471-1.685 3.07 3.07 0 0 1 .003-.971 2.24 2.24 0 0 1 1.391-1.574c.425-.173.895-.156 1.342-.102.966.022 1.954-.276 2.711-.886.555-.44.95-1.081 1.072-1.78.122-.622-.04-1.265-.322-1.822-.493-.964-1.4-1.687-2.425-2.018-.808-.257-1.422-1.02-1.517-1.86-.039-.39-.003-.797.158-1.157a2.252 2.252 0 0 1 1.578-1.312c.414-.101.841-.002 1.259-.012 1.394-.036 2.734-.888 3.357-2.136.201-.375.275-.809.518-1.164zm27.015 2.751c1.077.006 2.154 0 3.231.002-.147.796-.334 1.584-.482 2.38h-3.248c.143-.798.31-1.593.498-2.382zm-11.689.72c1.923-.004 3.846-.006 5.769.013.886.023 1.812.285 2.465.909.405.37.643.895.722 1.433.099.67-.001 1.378-.344 1.968-.457.818-1.314 1.345-2.205 1.573-.182.058-.38.059-.555.139.671.117 1.351.4 1.795.936.352.414.499.967.502 1.502-.01.708-.189 1.427-.596 2.015-.467.706-1.216 1.176-1.998 1.465-.62.229-1.278.336-1.934.396-1.058.008-2.116.049-3.174.047-1.006.013-2.013.048-3.02.04.842-4.148 1.712-8.29 2.573-12.434zm2.802 2.382c-.16.844-.342 1.684-.52 2.525.786-.035 1.598.074 2.36-.176.422-.141.843-.431.972-.878.117-.342.06-.745-.168-1.029-.23-.26-.584-.35-.914-.399-.574-.066-1.154-.04-1.73-.043zm-.993 4.786c-.17.809-.336 1.62-.508 2.428-.035.152-.076.305-.073.462.439-.003.879.023 1.315-.029.501-.025 1.012-.105 1.464-.332.372-.188.689-.525.774-.942.021-.373.079-.808-.191-1.111-.337-.385-.893-.414-1.368-.441-.469-.057-.943-.029-1.414-.035z"/><path d="M9.499 9.932l.093-.033-.008.041-.048.017-.037-.025zm35.157 2.836c.549-.068 1.105-.028 1.652.035.825.113 1.643.389 2.308.9a3.704 3.704 0 0 1 1.264 1.721c.234.677.289 1.408.216 2.118-.072 1.111-.428 2.235-1.156 3.094-.766.911-1.893 1.447-3.046 1.668a8.744 8.744 0 0 1-2.003.15c-.818-.017-1.647-.161-2.386-.523a3.623 3.623 0 0 1-1.499-1.308 4.145 4.145 0 0 1-.58-1.589c-.048-.434-.1-.874-.04-1.309.06-.819.282-1.635.697-2.347a4.974 4.974 0 0 1 1.86-1.828c.827-.467 1.768-.718 2.712-.781zm.221 2.27a2.223 2.223 0 0 0-1.396.837c-.402.491-.642 1.1-.745 1.723-.067.566-.061 1.168.197 1.689.19.402.55.73.986.839.59.148 1.25.024 1.743-.335.443-.313.729-.803.899-1.309a5.053 5.053 0 0 0 .216-1.97c-.051-.43-.219-.868-.561-1.151-.366-.311-.876-.384-1.34-.322zm10.955-2.254c1.271-.168 2.554.127 3.741.572-.205.75-.467 1.485-.672 2.235-.191-.016-.359-.117-.54-.172a4.867 4.867 0 0 0-1.358-.301c-.699-.029-1.431.141-1.986.585-.738.587-1.018 1.579-.985 2.49.022.466.21.93.548 1.257.404.427 1.002.628 1.581.627.712.025 1.419-.13 2.075-.401-.095.82-.29 1.626-.442 2.437-.903.291-1.86.354-2.802.347-.957-.006-1.931-.273-2.693-.867-.839-.629-1.389-1.607-1.539-2.64-.177-1.22.072-2.508.725-3.558a5.267 5.267 0 0 1 1.589-1.639c.819-.547 1.781-.863 2.757-.972zm8.559-.019c.953-.085 1.935.004 2.838.332.758.28 1.454.767 1.916 1.437.31.44.519.947.625 1.474.108.521.052 1.055.061 1.583-.072.828-.283 1.655-.698 2.38a4.524 4.524 0 0 1-1.899 1.788c-.755.389-1.595.584-2.436.664-1.061.08-2.158.053-3.166-.32-.741-.267-1.41-.753-1.852-1.41-.491-.73-.693-1.625-.678-2.497-.007-.867.167-1.741.553-2.519a4.929 4.929 0 0 1 1.824-2.011c.874-.542 1.89-.829 2.912-.901zm.223 2.268c-.752.107-1.374.653-1.727 1.305-.426.804-.624 1.774-.346 2.659.146.49.505.935.998 1.104.845.27 1.845-.074 2.345-.808.496-.708.653-1.6.636-2.449.018-.551-.157-1.153-.603-1.506-.365-.286-.853-.351-1.303-.305zm11.651-1.931c.484-.227 1.017-.322 1.547-.364.552-.02 1.124.034 1.625.285.559.268.996.757 1.244 1.321.221.506.328 1.063.303 1.614a5.57 5.57 0 0 1-.111 1.301c-.323 1.664-.652 3.326-.975 4.99-1.107.006-2.214.004-3.32.007.052-.411.162-.812.237-1.219.259-1.259.523-2.517.77-3.779.061-.407.174-.851-.02-1.241-.13-.304-.436-.498-.755-.548-.504-.082-1.045.018-1.466.313-.622.412-.972 1.119-1.16 1.82-.338 1.551-.643 3.109-.991 4.656-1.073-.016-2.146.008-3.219-.009.474-2.156.904-4.321 1.357-6.482.189-.938.394-1.878.468-2.834.996-.007 1.993 0 2.99-.003-.054.515-.161 1.024-.241 1.536.475-.559 1.049-1.049 1.715-1.363zm-40.528-.168c1.084-.003 2.167-.005 3.251 0-.46 2.287-.943 4.569-1.409 6.855-.175.821-.329 1.647-.516 2.465-1.083 0-2.166.005-3.248-.007.643-3.104 1.273-6.21 1.922-9.313zm-20.432 3.411l.009.013-.009-.013zm-1.269.941l.006.01-.006-.01zm.238 2.99zm-6.965.48l.096-.029-.01.041-.049.015-.036-.027zm-.266.081l.014-.005a.078.078 0 0 0-.014.005zm-.14.049l.011-.004-.011.004zm-.512.233l.012-.006-.012.006zm6.384.553zm-.09.044a.067.067 0 0 0 .012-.006.067.067 0 0 0-.012.006zm-5.59 5.267z"/></symbol><symbol id="icon-Dell_Logo" viewBox="0 0 32 32"><title>Dell_Logo</title><path d="M16.001 1.824A14.125 14.125 0 0 0 5.978 5.979a14.117 14.117 0 0 0-4.153 10.023c0 3.912 1.586 7.455 4.153 10.018 2.566 2.564 6.11 4.154 10.023 4.154s7.46-1.59 10.022-4.154a14.113 14.113 0 0 0 4.149-10.018c0-3.915-1.583-7.461-4.149-10.023a14.114 14.114 0 0 0-10.022-4.155zm0-1.717c8.776 0 15.892 7.117 15.892 15.895 0 8.775-7.116 15.891-15.892 15.891S.107 24.777.107 16.002C.107 7.224 7.226.107 16.001.107z"/><path d="M8.484 15.872c0-.926-.615-1.452-1.485-1.452h-.532v2.906h.517c.809 0 1.5-.44 1.5-1.453zm9.472 1.046l-3.923 3.089-3.585-2.823c-.517 1.243-1.768 2.106-3.207 2.106H4.173v-6.835h3.068a3.439 3.439 0 0 1 3.206 2.113l3.586-2.82 1.328 1.045-3.287 2.583.632.494 3.286-2.582 1.33 1.043-3.286 2.586.631.495 3.289-2.587v-2.372h2.384v4.84h2.379v2.003h-4.763v-2.381zm7.784.378h2.378v2.002h-4.765v-6.844h2.387v4.841z"/></symbol><symbol id="icon-Expedia_logo" viewBox="0 0 113 32"><title>Expedia_logo</title><path d="M54.34 25.038h-3.511c-.017 0-.026-.003-.035-.015l-3.026-3.693-3.027 3.693c-.007.012-.019.015-.033.015h-2.812c-.017 0-.031-.009-.042-.027a.045.045 0 0 1 .006-.044l4.457-5.473-4.406-5.421c-.013-.017-.013-.034-.007-.052.007-.01.024-.025.039-.025h3.513c.01 0 .024.006.032.021l2.654 3.29 2.701-3.292a.039.039 0 0 1 .033-.019h2.863c.017 0 .034.016.041.025a.052.052 0 0 1-.007.052l-4.181 5.021 4.776 5.873c.011.014.016.033.006.044a.038.038 0 0 1-.037.027zm19.001-9.096c-1.554 0-2.618.943-2.92 2.584h5.291v-.107c0-1.311-.968-2.477-2.37-2.477zm5.099 4.266c-.009.011-.025.021-.039.021h-8.037c.168 1.871 1.383 2.937 3.348 2.937 1.212 0 2.498-.413 4.314-1.379.033-.019.068.008.068.042l-.005 2.472c-.003.021-.011.033-.025.038-1.691.712-3.389 1.198-4.723 1.198-3.46 0-5.97-2.522-5.97-5.996 0-3.472 2.51-5.994 5.97-5.994 3.156 0 5.184 2.127 5.184 5.052 0 .473-.082 1.574-.086 1.609zm16.324-8.493c-.986 0-1.788-.789-1.788-1.761 0-1 .802-1.812 1.788-1.812s1.788.812 1.788 1.812c0 .971-.803 1.761-1.788 1.761zM93.32 25.036c-.028 0-.046-.017-.046-.045V14.04c0-.023.016-.04.035-.046h2.903c.024.005.036.023.036.046v10.951c0 .028-.019.045-.042.045H93.32zM59.647 23.39a6.445 6.445 0 0 1-1.675-.238l.006-7.027c.72-.229 1.349-.338 1.97-.338 2.011 0 3.361 1.484 3.361 3.689 0 2.378-1.438 3.914-3.663 3.914zm.79-9.841c-.818 0-1.646.149-2.513.447h-2.889c-.025 0-.04.02-.04.046V32a6.647 6.647 0 0 0 2.979-1.169l-.001-5.463c.71.101 1.299.168 1.867.168 3.955 0 6.514-2.37 6.514-6.042 0-3.501-2.434-5.946-5.918-5.946zm27.6 8.929c-.904.474-1.712.7-2.471.7-1.792 0-2.865-1.266-2.865-3.387 0-2.452 1.37-4.038 3.49-4.038.585 0 1.154.144 1.846.457v6.268zm0-14.282v5.733c-.847-.241-1.594-.354-2.347-.354-3.443 0-6.042 2.597-6.042 6.042 0 3.43 2.293 5.919 5.448 5.919 1.092 0 2.115-.275 3.318-.893l-.003.989a6.613 6.613 0 0 0 2.605-1.107V7.023a6.428 6.428 0 0 0-2.979 1.173zm18.267 14.26c-.875.504-1.624.748-2.294.748-1.918 0-3.068-1.263-3.068-3.39 0-2.416 1.353-4.038 3.366-4.038.539 0 1.193.207 1.996.63v6.049zm2.983-8.593a.125.125 0 0 0-.125-.123l-2.345.004a.13.13 0 0 0-.129.125v.4h-.059c-1.083-.474-2.008-.695-2.917-.695-3.245 0-5.79 2.693-5.79 6.141 0 3.484 2.278 5.82 5.668 5.82.905 0 2.067-.062 3.154-1.313v1.409a6.746 6.746 0 0 0 2.539-1.11l.004-10.658zm-75.422 8.435l7.286-.003a6.557 6.557 0 0 1-1.018 2.739l-7.497-.001-.082.001a1.803 1.803 0 0 1-1.782-1.628c-.004-.013-.01-.027-.011-.039V8.996a.142.142 0 0 1 .011-.035c.091-.911.854-1.633 1.782-1.633.03 0 .057.004.082.004l8.499-.002a6.681 6.681 0 0 1-1.018 2.759h-6.252v3.912h6.189c.026 0 .045.018.045.043v2.713a.044.044 0 0 1-.045.043h-6.189v5.497zm-18.52-12.22l-.528-1.496-4.482-5.989.804-.2 7.728 6.679 4.547-1.301c.534-.137 1.14-.168 1.603-.164A13.073 13.073 0 0 0 17.52.765C10.694-1.668 3.191 1.899.761 8.727a13.085 13.085 0 0 0-.613 6.364l10.893-3.783 4.305-1.231zm10.153-1.291c-.4.258-.986.6-1.569.786l-4.557 1.301-3.041 9.76-.789.257.643-7.455-.359-1.548-4.269 1.219L.269 15.764a13.117 13.117 0 0 0 8.452 9.723c6.827 2.433 14.328-1.134 16.757-7.958a13.08 13.08 0 0 0 .019-8.742z"/></symbol><symbol id="icon-Hewlett-Packard_logo" viewBox="0 0 50 32"><title>Hewlett-Packard_logo</title><path d="M26.991 28.611c6.648 0 12.039-5.715 12.039-12.765 0-7.048-5.391-12.763-12.039-12.763-.248 0-.495.008-.738.024l.657-2.048h19.073c1.698 0 3.077 1.433 3.077 3.2v23.287c0 1.767-1.378 3.199-3.077 3.199h-19.73l.738-2.134zM20.347 1.059H4.398c-1.698 0-3.075 1.433-3.075 3.2v23.287c0 1.767 1.377 3.199 3.075 3.199h15.291l.899-2.376c-5.423-1.27-9.488-6.506-9.488-12.774 0-5.853 3.545-10.806 8.431-12.47l.815-2.066z"/><path d="M29.848 20.226h-1.606l3.018-8.474h1.607l-3.019 8.474zm4.035-10.21h-5.206l-7.384 20.735h3.199l3.146-8.835h3.2c.707 0 1.599-.211 1.969-1.266.368-1.056 2.368-6.591 2.922-8.254.553-1.665-.769-2.379-1.847-2.379zm-8.049 2.644l-3.151 8.837h-3.17l3.466-9.723h-1.633l-3.466 9.723h-3.199l7.286-20.426h3.199l-3.208 8.995h2.154c1.551 0 2.187 1.216 1.722 2.594z"/></symbol><symbol id="icon-Molten_company_logo" viewBox="0 0 129 32"><title>Molten_company_logo</title><path d="M42.16 19.503c-.301-3.197 1.81-5.368 3.62-6.453 1.81-1.087 3.558-2.654 3.981-3.619.285-.653-.339-1.91-.773-2.657a11.972 11.972 0 0 0-1.158-.057c-6.463 0-11.701 5.239-11.701 11.701 0 2.033.519 3.944 1.431 5.61h8.28c-.001-.001-3.485-2.461-3.68-4.524z"/><path d="M51.932 21.554c-.887.939-3.137 2.473-3.981 1.146-.842-1.323 1.769-2.444 3.076-3.377 2.111-1.508 2.473-2.353 2.473-2.353s-.543 3.498-1.568 4.584zM50.333 6.987c1.201 1.279 3.296 3.865 3.167 6.243-.181 3.317-1.689 3.98-3.921 5.488s-3.377 2.533-3.377 3.499c0 .965 1.146 1.87 1.146 1.87h10.719a11.657 11.657 0 0 0 1.466-5.67c0-5.602-3.939-10.283-9.199-11.429zM38.597 25.596c2.141 2.75 5.477 4.523 9.233 4.523s7.092-1.773 9.232-4.523H38.597zM1.607 14.197c0-2.571 4.643-7.684 8.842-7.839 5.08-.188 7.839 2.571 7.839 2.571s2.321-2.697 6.898-2.697c5.708 0 9.934 5.541 9.934 8.7v14.636h-7.587V16.263c0-1.056-.175-1.84-.526-2.353-.511-.806-1.642-1.21-2.387-1.21-.907 0-1.629.381-2.171 1.143s-.811 1.988-.811 3.673v12.052h-7.086V16.735c0-1.023-.052-1.718-.154-2.085-.162-.584-1.315-2.085-3.071-1.952-.864.065-1.818.388-2.383 1.163s-.848 2.047-.848 3.816v11.89H1.57l.036-15.372zM60.353 1.571h6.868v28.206h-6.868zm20.145 11.811V7.236h-4.807V1.571h-6.867s-.019 15.882 0 17.211c.073 5.01 2.893 10.215 7.284 10.591 1.188.102 4.391 0 4.391 0v-5.519s-2.447.252-3.575-.627c-1.253-.974-1.232-4.446-1.232-4.446V13.38l4.806.001z"/><path d="M97.252 21.963h6.942c-1.588 4.912-6.196 8.466-11.636 8.466-6.754 0-12.229-5.475-12.229-12.229S85.804 5.971 92.558 5.971c6.753 0 12.229 5.475 12.229 12.229 0 .771-.075 1.526-.212 2.257H86.98a6.021 6.021 0 0 0 5.579 3.763 6.004 6.004 0 0 0 4.694-2.257z"/><path fill="var(--color4,#fff)" d="M97.535 14.814h-9.954c1.084-1.589 2.908-2.634 4.977-2.634s3.893 1.045 4.977 2.634z"/><path d="M118.001 15.828v14.173h6.71V15.828s-.314-9.03-10.536-8.968c-8.842.054-8.905 8.968-8.905 8.968v14.173h6.71V15.828s.314-2.634 2.885-2.634 3.136 2.634 3.136 2.634z"/></symbol><symbol id="icon-NTT_company_logo" viewBox="0 0 88 32"><title>NTT_company_logo</title><path d="M.035 15.149c0 9.382 7.667 16.638 16.657 16.638 8.989 0 16.657-7.256 16.657-16.638C33.349 6.544 27.36.272 20.728.272c-1.508 0-2.992.326-4.036.755-1.045-.429-2.53-.755-4.035-.755C6.023.272.035 6.545.035 15.149zM19.66 10.83c0 1.822-1.203 3.258-2.967 3.258-1.763 0-2.967-1.436-2.967-3.258 0-2.485 1.689-4.69 2.967-5.448 1.279.759 2.967 2.964 2.967 5.448zM4.131 15.07c0-6.475 4.673-10.9 8.345-10.735-1.74 1.734-2.795 4.259-2.795 6.701 0 4.204 3.336 7.152 7.012 7.152 3.674 0 7.012-2.948 7.012-7.152 0-2.442-1.054-4.968-2.795-6.701 3.672-.165 8.345 4.26 8.345 10.735 0 7.089-5.688 12.62-12.563 12.62S4.129 22.159 4.129 15.07zM48.82 7.106V10.4h1.84v6.057l-4.941-9.351h-5.703V10.4h1.839v10.078h-1.839v3.292h7.543v-3.292h-1.84V14.42l4.941 9.35h3.864V10.4h1.839V7.106h-7.542zm23.215 6.4V7.105H57.529v6.401h3.293v-3.107h1.772v10.078h-2.406v3.29h9.186v-3.29h-2.406V10.399h1.773v3.107h3.292zm15.629 0V7.105H73.16v6.401h3.291v-3.107h1.773v10.078h-2.405v3.29h9.184v-3.29h-2.404V10.399h1.772v3.107h3.293z"/></symbol><symbol id="icon-Williams_Companies_logo" viewBox="0 0 61 32"><title>Williams_Companies_logo</title><path d="M14.394 7.66h-2.753l-.078.181-2.803 6.605.174-6.481.008-.304h-2.82l-.077.179-2.859 6.604.227-6.476.011-.307H.717l-.003.293-.152 11.807-.003.301h2.783l3.075-7.257-.123 6.955-.005.302h2.784l.077-.18 5.244-12.221zm2.812 3.304h-2.631l-.051.233-1.965 8.864h2.631l.052-.233 1.965-8.864zm-.024-.968h.238l.051-.232.42-1.895.081-.362h-2.633l-.051.233-.421 1.896-.08.361h2.393zM21.99 7.66h-2.632l-.051.232L16.61 20.06h2.632l.051-.233L21.991 7.66zm4.053 0h-2.631l-.052.232-2.697 12.168h2.631l.051-.233L26.043 7.66zm3.238 3.304H26.65l-.051.233-1.965 8.864h2.631l.052-.233 1.965-8.864zm-.023-.968h.238l.051-.232.42-1.895.081-.362h-2.632l-.051.233-.421 1.896-.08.361h2.393zm4.359 7.337c-.578.398-1.334.779-1.796.779-.135 0-.317-.026-.415-.148-.105-.131-.087-.337-.054-.487.198-.892 1.342-1.19 2.549-1.422l-.284 1.278zm3.236-2.729c.306-1.377.227-2.301-.25-2.907-.451-.576-1.257-.856-2.537-.884-1.325-.035-2.973.697-3.751 1.666l-.173.217.204.188 1.299 1.191.202-.211c.446-.47 1.019-.951 1.877-.951.311 0 .554.08.667.22.081.102.103.246.062.43l-.114.513c-3.458.434-5.205 1.527-5.649 3.53-.162.731-.038 1.4.349 1.882.265.33.784.723 1.745.723 1.002.01 1.81-.29 2.524-.667l-.01.204-.013.31h2.621l-.041-.334c-.036-.287-.004-.644.103-1.125l.886-3.996zm13.095-3.136c-.338-.423-.877-.655-1.516-.655-1.371 0-2.321.5-3.066 1.056-.335-.66-1.046-1.056-1.951-1.056-.953-.008-1.625.23-2.332.682l.037-.168.08-.361h-2.451l-.052.232-1.883 8.501-.081.361h2.632l.051-.233 1.33-5.998c.633-.472 1.279-.786 1.632-.789.165.008.376.042.464.155.076.1.084.3.023.577l-1.314 5.927-.08.361h2.631l.051-.233 1.33-5.998c.632-.472 1.279-.786 1.633-.789.166.008.376.042.463.155.078.1.085.3.023.577l-1.394 6.287h2.632l.051-.233 1.353-6.105c.217-.98.118-1.738-.297-2.255zm4.907 1.445c.411 0 .776.245 1.148.769l.174.246.244-.178 1.739-1.271-.147-.234c-.567-.911-1.644-1.433-2.955-1.433-1.468 0-3.235.844-3.645 2.699-.439 1.978 1.122 2.596 2.261 3.045.822.325 1.202.512 1.132.828-.095.428-.563.727-1.136.727-.621 0-1.081-.336-1.444-1.057l-.148-.294-2.071 1.325.106.234c.561 1.238 1.635 1.892 3.107 1.892 2.103 0 3.589-1.039 3.975-2.78.462-2.086-1.188-2.717-2.281-3.134-.799-.306-1.168-.483-1.1-.788.087-.396.439-.597 1.041-.597zm-32.518 9.105C11.915 26.286 3.363 27.33 3.235 24.35c-.034-.793.536-1.791 1.581-2.91H3.295C1.028 23.611-.143 25.472.14 26.754c.806 3.651 13.1 1.262 27.693-5.314h-4.127c-.453.195-.908.389-1.369.577zM54.705 1.817C53.936-1.77 42.404.224 28.291 6.196l.625.33c8.616-3.43 16.063-5.52 19.969-5.364 4.661.186 3.127 3.523-3.021 8.376h2.914c4.042-3.18 6.304-5.967 5.927-7.721zm1.168 3.577c-.142-.513-.521-.902-1.108-1.173-.368.715-.954 1.505-1.739 2.356-.099.774-.752 1.779-1.907 2.961h2.829c1.503-1.675 2.212-3.106 1.924-4.143z"/><path d="M30.957 9.441l.615.325C39.229 6.752 46.09 4.851 49.95 4.85c.27-.378.48-.731.629-1.058-4.57.33-11.653 2.32-19.622 5.648zm1.392 12a90.77 90.77 0 0 1-7.493 3.549c-9.335 3.917-17.248 5.47-19.537 4.042-1.941.17-3.133-.032-3.762-.215a3.3 3.3 0 0 0-.232.764c-.639 4.011 9.683 2.851 23.052-2.588a108.523 108.523 0 0 0 11.644-5.552H32.35zm-21.668 0H9.414c-1.883 1.26-3.499 2.492-4.789 3.647.289.172.902.325 1.289.351 1.041-1.199 2.679-2.569 4.766-3.998z"/></symbol><symbol id="icon-Bluestar_(bus_company)_logo" viewBox="0 0 153 32"><title>Bluestar_(bus_company)_logo</title><path d="M29.075 20.606c0 1.849.636 3.421 1.903 4.72 1.267 1.291 2.825 1.938 4.679 1.938h.443c1.225 0 2.263.43 3.122 1.293.861.857 1.291 1.895 1.291 3.116h-4.854c-3.087 0-5.733-1.077-7.933-3.223-2.201-2.14-3.301-4.757-3.301-7.85V.012c1.273 0 2.368.463 3.281 1.374.914.916 1.369 2.014 1.369 3.289v15.931zm74.334 0c0 1.849.634 3.421 1.903 4.72 1.269 1.291 2.83 1.938 4.677 1.938h.449c1.221 0 2.261.43 3.124 1.293.857.857 1.287 1.895 1.287 3.116h-4.854c-3.087 0-5.735-1.077-7.933-3.223-2.206-2.14-3.305-4.757-3.305-7.85V.012c1.275 0 2.364.463 3.281 1.374.912.916 1.37 2.014 1.37 3.289v15.931zm38.405 6.736c0 1.277-.459 2.374-1.37 3.291-.916.914-2.012 1.37-3.283 1.37V20.588c0-3.087 1.096-5.704 3.301-7.848 2.204-2.146 4.846-3.217 7.933-3.217h4.856c0 1.219-.43 2.259-1.291 3.116-.861.863-1.901 1.293-3.122 1.293h-.447c-1.849 0-3.406.649-4.675 1.942-1.267 1.293-1.901 2.863-1.901 4.714v6.753zM93.204 9.25c-3.087 0-5.46 1.071-7.657 3.217-2.156 2.098-2.638 4.654-2.681 7.655h-.012v.787c-.054 1.746.371 3.235-.842 4.473-1.266 1.291-2.368 1.938-4.22 1.938h-4.177c-1.221 0 .906.432.041 1.289-.855.857-.723 1.899-.723 3.118h4.856c3.087 0 5.276-1.071 7.476-3.217 2.146-2.088 2.185-4.619 2.241-7.601h.012v-.187l.002-.06h-.002v-.54h-.004c.043-1.763.062-3.279 1.285-4.527 1.266-1.291 2.552-1.94 4.401-1.94h.449c1.219 0 2.259-.43 3.122-1.289.857-.861 1.289-1.901 1.289-3.116h-4.856z"/><path d="M106.927 6.957l-.086.089c0 .086.086.086.086.173h-.169c.084.418-.255.76 0 1.184-.169 0-.169.087-.169.169s0 .249.086.336c-.255.087-.171.426-.255.597-.507-.255-1.017-.255-1.524-.171-.087 0-.173-.084-.173-.084-.255.171-.591-.086-.758.171 0 .084.084.253.167.332.255.259.591.424.846.595.171.34.426.593.595.935-.253.42-.764.677-.933 1.265-.084.255-.422.255-.507.432v.165c.086.165.336.087.507.165.338.089.68-.251.933-.165h.678c.086 0 .169-.086.253-.086-.084 0-.084 0-.084.086.084.426.338.762.338 1.188l-.084.084c.167.34.167.677.338 1.013h.171l-.087.087c.593-.591.846-1.444 1.442-2.035.334.426.931.426 1.267.68.257.338.764.677 1.106.422 0-.084-.089-.338-.089-.422-.253-.169-.336-.426-.336-.762-.087-.255-.257-.511-.34-.851 0-.08.084-.08.084-.163h-.084c0-.175.169-.175.253-.261h.259c.084-.165.338 0 .255-.33.507 0 1.1-.091 1.435-.511v-.171c-.08-.171-.334-.171-.505-.171-.422-.169-.929-.253-1.271-.593-.171-.082-.424 0-.34-.171 0-.336 0-.589.086-.927.171-.255.255-.597.426-.848.082-.167.082-.595-.084-.595-.259-.082-.428.171-.682.257-.422.171-.673.507-1.102.678-.08.078-.251.078-.334.078-.087-.078-.171-.167-.171-.33 0 0-.087-.087-.171-.087-.086-.084 0-.167-.086-.255-.084-.084-.251-.169-.336-.255 0-.167-.086-.336-.169-.507-.255-.167-.338-.505-.678-.43zm24.932 6.071c-2.344-2.148-5.155-3.231-8.433-3.231-3.285 0-6.094 1.083-8.427 3.231-2.337 2.15-3.509 4.765-3.509 7.836 0 3.073 1.172 5.676 3.509 7.811 2.333 2.131 5.142 3.2 8.427 3.2h1.58c4.422 0 4.677-4.386 4.677-4.386h-6.269c-1.971 0-3.629-.642-4.969-1.932s-2.01-2.85-2.01-4.693c0-1.841.673-3.417 2.022-4.722 1.357-1.306 3.001-1.963 4.957-1.963 1.95 0 3.602.657 4.953 1.963 1.349 1.304 2.028 2.881 2.028 4.722l-.014 11.01h5.002v-11.01c0-3.071-1.174-5.686-3.524-7.836zM19.82 12.22c-2.29-2.086-5.043-3.136-8.258-3.136h-1.551c-4.333 0-4.582 4.296-4.582 4.296h6.139c1.936 0 3.559.628 4.873 1.889 1.312 1.271 1.969 3.83 1.969 5.63 0 1.81-.659 3.349-1.981 4.628-1.334 1.283-2.945 1.921-4.862 1.921-1.907 0-3.528-.638-4.846-1.921-1.174-1.131-1.825-2.473-1.96-4.018a22.794 22.794 0 0 1-.025-1.013c0-.016.002-.031.004-.045V10.119l.004-3.404H4.74l-.004-.012V4.571c-.066-1.25-.515-2.327-1.411-3.221C2.431.45 1.362.001-.001.001v20.18c.004.08.016.167.018.243l-.002.266c-.045 3.013.98 5.781 3.277 7.892 2.302 2.107 5.058 3.163 8.27 3.163 3.215 0 5.968-1.056 8.258-3.163 2.288-2.111 3.435-4.669 3.435-7.684 0-3.009-1.147-6.592-3.435-8.68zm51.661 19.499c-3.087 0-5.727-1.067-7.92-3.211-2.191-2.146-3.289-4.763-3.289-7.85s1.098-5.713 3.289-7.877c2.193-2.162 4.833-3.241 7.92-3.241h6.572c0 1.217-.435 2.255-1.302 3.108-.869.857-1.915 1.291-3.136 1.291h-2.138c-1.814 0-3.357.657-4.632 1.985-1.277 1.322-1.913 2.898-1.913 4.733 0 1.833.632 3.406 1.899 4.704 1.267 1.308 2.813 1.963 4.646 1.963h2.138c1.221 0 2.267.43 3.136 1.283.867.859 1.302 1.899 1.302 3.11h-6.572z"/><path d="M69.379 18.431h8.126c0 1.225-.426 2.261-1.289 3.118-.859.857-1.907 1.283-3.149 1.283h-3.688c-.61 0-1.127-.21-1.555-.628a2.09 2.09 0 0 1-.634-1.545c0-.634.204-1.161.622-1.586.42-.426.939-.642 1.567-.642zm-11.403-7.593c-.918-.919-2.014-1.376-3.289-1.376v11.096c-.002 1.829-.64 3.402-1.913 4.714-1.275 1.322-2.821 1.987-4.634 1.987-1.849 0-3.406-.657-4.673-1.969-1.266-1.318-1.901-2.9-1.901-4.751V14.13c0-1.283-.459-2.377-1.372-3.291-.918-.919-2.012-1.376-3.287-1.376V20.54c0 3.106 1.093 5.737 3.287 7.9 2.191 2.154 4.84 3.237 7.947 3.237 3.089 0 5.731-1.091 7.92-3.254 2.193-2.164 3.289-4.792 3.289-7.883v-6.409c0-1.283-.459-2.377-1.372-3.291z"/></symbol><symbol id="icon-Yodel_(company)_logo" viewBox="0 0 120 32"><title>Yodel_(company)_logo</title><path d="M9.032 20.097L0 .837h8.374l4.546 12.142L17.466.837h8.314l-8.972 19.26v11.065H9.032zM55.566.837h10.049c3.409 0 9.45 0 13.398 5.622 2.093 2.871 2.811 6.101 2.811 9.391 0 8.254-4.127 15.252-15.611 15.252H55.566V.837zm7.776 23.507h3.29c5.802 0 7.417-4.007 7.417-8.314 0-1.735-.359-3.888-1.495-5.622-.897-1.376-2.452-2.811-5.921-2.811h-3.35v16.748zM83.619.837h17.166v6.819h-9.391v4.665h9.092v6.819h-9.092v5.204h9.391v6.819H83.619zm19.319 0h7.716v23.507h8.972v6.819h-16.688z"/><path d="M22.25 15.97C22.25 7.177 29.428 0 38.22 0s15.97 7.178 15.97 15.97c0 8.852-7.178 15.97-15.97 15.97s-15.97-7.118-15.97-15.97zm15.971 9.032c4.965 0 9.032-4.067 9.032-9.032s-4.007-9.032-9.032-9.032c-4.965 0-9.032 4.007-9.032 9.032.06 4.964 4.067 9.032 9.032 9.032z"/></symbol><symbol id="icon-West-Japan-Railway-Company-Logo" viewBox="0 0 48 32"><title>West-Japan-Railway-Company-Logo</title><path d="M5.883 13.898l4.577-.005-.004 5.684c-.008 1.097 2.967 1.68 3.284 1.671l1.489-.011c.252-.002 4.447-.026 4.445-1.992l.129-13.212 18.038-.018c1.817.023 3.809 2.667 3.861 5.336l.015 1.332c-.008 2.718-1.935 5.438-3.404 5.422l-2.507.058 6.165 7.139-6.121-.005-8.924-11.311 9.164-.018c.298-.002 1.055-.795 1.057-1.548l-.052-.99c-.018-.425-.622-1.068-.987-1.082l-11.8-.114-.057 9.993c.006 3.703-4.679 5.198-7.788 5.205l-2.746.002c-1.383-.026-7.887-.746-7.89-5.169l.054-6.368z"/></symbol></defs></svg>