<svg style="position:absolute;width:0;height:0" xmlns="http://www.w3.org/2000/svg" overflow="hidden"><defs><symbol id="icon-photo-camera" viewBox="0 0 32 32"><title>photo-camera</title><path d="M29.441 8.267h-4.546l-2.133-5.333H9.24L7.107 8.267h-.706V5.6h-3.2v2.667H2.56a2.561 2.561 0 0 0-2.559 2.559v15.663a2.58 2.58 0 0 0 2.578 2.578h26.845a2.58 2.58 0 0 0 2.578-2.578V10.826a2.561 2.561 0 0 0-2.559-2.559zm-25.174-1.6h1.067v1.6H4.267v-1.6zm26.666 19.822c0 .834-.678 1.511-1.511 1.511H2.577a1.513 1.513 0 0 1-1.511-1.511V10.826c0-.823.67-1.493 1.493-1.493h5.268L9.96 4h12.078l2.133 5.333h5.268c.823 0 1.493.67 1.493 1.493v15.663z"/><path d="M16 7.733c-5.293 0-9.6 4.307-9.6 9.6s4.307 9.6 9.6 9.6 9.6-4.307 9.6-9.6-4.307-9.6-9.6-9.6zm0 18.134c-4.705 0-8.533-3.828-8.533-8.533S11.295 8.801 16 8.801s8.533 3.828 8.533 8.533-3.828 8.533-8.533 8.533z"/><path d="M16 10.933c-3.529 0-6.4 2.871-6.4 6.4s2.871 6.4 6.4 6.4 6.4-2.871 6.4-6.4-2.871-6.4-6.4-6.4zm0 11.734c-2.941 0-5.333-2.393-5.333-5.333S13.06 12.001 16 12.001s5.333 2.393 5.333 5.333S18.94 22.667 16 22.667zM27.733 10.4c-1.177 0-2.133.957-2.133 2.133s.957 2.133 2.133 2.133 2.133-.957 2.133-2.133-.957-2.133-2.133-2.133zm0 3.2a1.068 1.068 0 0 1 0-2.134 1.067 1.067 0 0 1 0 2.134z"/></symbol><symbol id="icon-interface" viewBox="0 0 32 32"><title>interface</title><path d="M17.957 2.308c-.529 0-1.058.11-1.506.332L.799 10.353c-.449.221-.797.584-.797 1.053s.348.832.797 1.053l8.804 4.338a.464.464 0 0 0 .21.047l8.804-.161a.454.454 0 0 0 .194-.047l12.392-6.106c.449-.221.797-.584.797-1.053s-.348-.832-.797-1.053L19.464 2.639a3.445 3.445 0 0 0-1.506-.332zm0 .949c.414 0 .828.067 1.102.203l11.739 5.785c.274.135.287.237.287.233s-.013.098-.287.233l-12.189 6.006-4.363-2.15a.46.46 0 0 0-.405 0l-4.363 2.15-8.276-4.078c-.274-.135-.287-.237-.287-.233s.013-.098.287-.233L16.854 3.46c.274-.135.688-.202 1.102-.202zm1.295 2.133a.228.228 0 0 0-.222.235.227.227 0 0 0 .131.2l6.522 3.214a.229.229 0 1 0 .213-.405l-.011-.005-6.522-3.214a.233.233 0 0 0-.11-.025zm-3.261 1.607a.229.229 0 0 0-.092.435l6.522 3.214a.229.229 0 1 0 .213-.405l-.011-.005-6.522-3.214a.233.233 0 0 0-.11-.025zm-3.26 1.607a.229.229 0 0 0-.092.435l6.522 3.214a.229.229 0 0 0 .202-.41l-6.522-3.214a.233.233 0 0 0-.11-.025zm-5.636.16a.23.23 0 0 0-.103.025l-4.891 2.41a.229.229 0 0 0 0 .41l2.283 1.125a.229.229 0 1 0 .213-.405l-.011-.005-1.866-.92 4.475-2.205a.23.23 0 1 0-.099-.436zm6.949 5.721l2.673 1.317-5.552.101 2.879-1.418zm17.317.057a.565.565 0 0 0-.252.059l-17.255 8.381L.815 16.436a.555.555 0 0 0-.51.986l.012.006 13.284 6.669a.553.553 0 0 0 .492.003l17.502-8.5a.554.554 0 0 0-.234-1.058zm-12.029 4.44a.269.269 0 0 0-.125.031l-5.425 2.713-4.871-2.49a.277.277 0 1 0-.252.494l4.996 2.553c.079.04.172.041.25.001l5.551-2.775a.278.278 0 0 0-.123-.528zm12.029 1.097a.565.565 0 0 0-.252.059l-17.255 8.38L.815 21.972a.555.555 0 1 0-.498.991l13.284 6.669a.553.553 0 0 0 .492.003l17.502-8.5a.554.554 0 0 0-.234-1.058zm-12.029 4.439a.269.269 0 0 0-.125.031l-5.425 2.713-4.871-2.489a.278.278 0 0 0-.26.49l.008.004 4.996 2.553c.079.04.172.041.25.001l5.551-2.775a.278.278 0 0 0-.123-.528z"/></symbol><symbol id="icon-computer" viewBox="0 0 32 32"><title>computer</title><path d="M30.068 1.746H1.932A1.935 1.935 0 0 0 0 3.678v19.426c0 1.065.867 1.932 1.932 1.932h9.641v1.406a2.34 2.34 0 0 1-2.337 2.337H7.111a.738.738 0 0 0 0 1.476h17.777a.738.738 0 0 0 0-1.476h-2.125a2.34 2.34 0 0 1-2.337-2.337v-1.406h9.641a1.935 1.935 0 0 0 1.932-1.932V3.678a1.934 1.934 0 0 0-1.932-1.932zM12.245 28.779a3.792 3.792 0 0 0 .804-2.337v-1.406h5.903v1.406c0 .88.301 1.691.804 2.337h-7.51zm18.28-5.675a.456.456 0 0 1-.456.456H1.933a.457.457 0 0 1-.457-.456v-3.877h29.049v3.877zm0-5.352H1.476V3.678c0-.252.205-.457.457-.457h28.136c.252 0 .457.205.457.457v14.074z"/><path d="M16.796 21.394a.796.796 0 1 1-1.591.001.796.796 0 0 1 1.591-.001zm.469-14.566a.738.738 0 0 0-1.043 0l-5.213 5.213a.738.738 0 1 0 1.044 1.043l5.213-5.213a.738.738 0 0 0 0-1.043zm3.09 3.022a.738.738 0 0 0-1.043 0l-2.077 2.077a.738.738 0 1 0 1.044 1.043l2.077-2.077a.738.738 0 0 0 0-1.043z"/></symbol></defs></svg>