<svg style="position: absolute; width: 0; height: 0; overflow: hidden;" version="1.1" xmlns="http://www.w3.org/2000/svg" xmlns:xlink="http://www.w3.org/1999/xlink">
<defs>
<symbol id="icon-discuss-issue" viewBox="0 0 32 32">
<title>discuss-issue</title>
<path d="M24.483 8.297c0 0.969-0.706 1.559-1.221 1.992-0.195 0.164-0.558 0.463-0.558 0.575 0.004 0.438-0.349 0.788-0.787 0.788-0.002 0-0.004 0-0.007 0-0.435 0-0.79-0.339-0.793-0.775-0.007-0.859 0.62-1.374 1.124-1.797 0.395-0.332 0.655-0.566 0.655-0.779 0-0.433-0.352-0.785-0.785-0.785s-0.785 0.352-0.785 0.785c0 0.438-0.355 0.793-0.793 0.793s-0.793-0.355-0.793-0.793c0-1.308 1.064-2.372 2.372-2.372s2.372 1.061 2.372 2.369zM21.933 12.384c-0.438 0-0.776 0.355-0.776 0.793v0.006c0 0.438 0.338 0.79 0.776 0.79s0.793-0.358 0.793-0.796-0.355-0.793-0.793-0.793zM5.941 17.911c-0.438 0-0.793 0.355-0.793 0.793s0.355 0.793 0.793 0.793h0.066c0.438 0 0.793-0.355 0.793-0.793s-0.355-0.793-0.793-0.793h-0.066zM8.698 17.911c-0.438 0-0.793 0.355-0.793 0.793s0.355 0.793 0.793 0.793h0.066c0.438 0 0.793-0.355 0.793-0.793s-0.355-0.793-0.793-0.793h-0.066zM32 5.239v8.93c0 2.114-1.695 3.83-3.81 3.83h-10.289c-0.201 0-0.367-0.001-0.505-0.004-0.145-0.003-0.309-0.004-0.372 0.003-0.066 0.044-0.229 0.193-0.386 0.338-0.062 0.057-0.133 0.12-0.208 0.189l-2.911 2.653c-0.232 0.212-0.576 0.267-0.863 0.14s-0.489-0.412-0.489-0.726v-8.411h-8.311c-1.24 0-2.267 1.016-2.267 2.255v8.93c0 1.24 1.028 2.214 2.267 2.214h11.493c0.198 0 0.383 0.091 0.529 0.224l2.372 2.187v-7.541c0-0.438 0.355-0.793 0.793-0.793s0.793 0.355 0.793 0.793v9.339c0 0.314-0.18 0.595-0.467 0.722-0.103 0.045-0.206 0.063-0.314 0.063-0.194 0-0.386-0.080-0.535-0.216l-3.478-3.192h-11.185c-2.114 0-3.854-1.686-3.854-3.801v-8.93c0-2.114 1.74-3.842 3.854-3.842h8.311v-5.355c0-2.114 1.753-3.813 3.867-3.813h12.158c2.114 0 3.81 1.698 3.81 3.813zM30.413 5.239c0-1.24-0.984-2.226-2.223-2.226h-12.158c-1.24 0-2.281 0.986-2.281 2.226v13.555l1.595-1.442c0.074-0.067 0.157-0.129 0.217-0.185 0.728-0.671 0.915-0.779 1.865-0.759 0.13 0.003 0.284 0.004 0.472 0.004h10.289c1.239 0 2.223-1.004 2.223-2.243v-8.93z"></path>
</symbol>
<symbol id="icon-light-bulb" viewBox="0 0 32 32">
<title>light-bulb</title>
<path d="M21.163 8.506c-1.475-1.419-3.413-2.15-5.463-2.075-3.931 0.156-7.138 3.481-7.15 7.419-0.006 1.744 0.606 3.444 1.725 4.781 1.613 1.938 2.5 4.381 2.5 6.887 0 0-0.169 1.15 0.65 1.15h5.15c0.837 0 0.65-1.15 0.65-1.15 0-2.45 0.9-4.875 2.606-7.012 1.056-1.331 1.619-2.931 1.619-4.631 0-2.044-0.813-3.956-2.288-5.369zM20.813 17.694c-1.856 2.325-2.85 4.975-2.887 7.675h-3.85c-0.037-2.756-1.025-5.438-2.8-7.569-0.919-1.106-1.425-2.506-1.419-3.944 0.012-3.25 2.656-5.994 5.9-6.125 1.694-0.063 3.294 0.544 4.506 1.713 1.219 1.169 1.887 2.744 1.887 4.431-0.006 1.406-0.462 2.725-1.337 3.819z"></path>
<path d="M24.575 4.237c-0.256-0.256-0.669-0.256-0.919 0l-1.587 1.587c-0.256 0.256-0.256 0.669 0 0.919s0.669 0.256 0.919 0l1.587-1.587c0.256-0.25 0.256-0.662 0-0.919z"></path>
<path d="M18.6 27.556h-5.2c-0.363 0-0.65 0.294-0.65 0.65 0 0.363 0.294 0.65 0.65 0.65h5.2c0.363 0 0.65-0.294 0.65-0.65s-0.294-0.65-0.65-0.65z"></path>
<path d="M17.619 30.006h-3.231c-0.363 0-0.65 0.294-0.65 0.65 0 0.363 0.294 0.65 0.65 0.65h3.231c0.363 0 0.65-0.294 0.65-0.65s-0.294-0.65-0.65-0.65z"></path>
<path d="M16 4.231c0.363 0 0.65-0.294 0.65-0.65v-2.244c0-0.363-0.294-0.65-0.65-0.65s-0.65 0.294-0.65 0.65v2.244c0 0.362 0.287 0.65 0.65 0.65z"></path>
<path d="M9.931 6.75c0.256-0.256 0.256-0.669 0-0.919l-1.588-1.587c-0.256-0.256-0.669-0.256-0.919 0s-0.256 0.669 0 0.919l1.587 1.587c0.256 0.25 0.669 0.25 0.919 0z"></path>
<path d="M27.475 12.162h-2.244c-0.363 0-0.65 0.294-0.65 0.65s0.294 0.65 0.65 0.65h2.244c0.363 0 0.65-0.294 0.65-0.65s-0.294-0.65-0.65-0.65z"></path>
<path d="M6.769 12.162h-2.244c-0.362 0-0.65 0.294-0.65 0.65s0.294 0.65 0.65 0.65h2.244c0.362 0 0.65-0.294 0.65-0.65s-0.287-0.65-0.65-0.65z"></path>
</symbol>
<symbol id="icon-like" viewBox="0 0 32 32">
<title>like</title>
<path d="M31.947 9.996c-0.467-5.141-4.106-8.871-8.66-8.871-3.034 0-5.812 1.633-7.375 4.249-1.549-2.651-4.213-4.25-7.199-4.25-4.553 0-8.193 3.73-8.66 8.871-0.037 0.227-0.188 1.422 0.272 3.371 0.663 2.811 2.196 5.368 4.43 7.393l11.148 10.117 11.34-10.116c2.235-2.025 3.767-4.582 4.43-7.394 0.46-1.948 0.309-3.144 0.273-3.371zM30.476 13.084c-0.606 2.568-2.009 4.907-4.056 6.76l-10.509 9.376-10.329-9.373c-2.050-1.857-3.453-4.196-4.059-6.763-0.436-1.844-0.257-2.886-0.256-2.893l0.009-0.062c0.4-4.504 3.527-7.774 7.436-7.774 2.884 0 5.424 1.772 6.629 4.625l0.567 1.343 0.567-1.343c1.186-2.809 3.859-4.624 6.812-4.624 3.909 0 7.036 3.27 7.444 7.832 0.001 0.010 0.18 1.052-0.255 2.897z"></path>
</symbol>
<symbol id="icon-glasses" viewBox="0 0 32 32">
<title>glasses</title>
<path d="M32 13.933h-1.716c-0.866-2.572-3.296-4.432-6.157-4.432-2.927 0-5.406 1.945-6.217 4.61-0.513-0.339-1.172-0.549-1.91-0.549s-1.396 0.21-1.91 0.549c-0.812-2.665-3.291-4.61-6.218-4.61-2.861 0-5.29 1.86-6.157 4.432h-1.715v1.333h1.417c-0.027 0.241-0.044 0.486-0.044 0.734 0 3.584 2.916 6.499 6.5 6.499s6.5-2.915 6.5-6.499c0-0.037-0.005-0.073-0.006-0.111h0.005c0-0.471 0.669-0.995 1.629-0.995s1.629 0.525 1.629 0.995h0.005c-0.001 0.037-0.006 0.073-0.006 0.111 0 3.584 2.915 6.499 6.499 6.499s6.5-2.915 6.5-6.499c0-0.249-0.017-0.493-0.044-0.734h1.417v-1.333zM7.872 21.166c-2.849 0-5.166-2.318-5.166-5.166s2.318-5.167 5.166-5.167c2.849 0 5.167 2.318 5.167 5.167s-2.318 5.166-5.167 5.166zM24.127 21.166c-2.848 0-5.166-2.318-5.166-5.166s2.318-5.167 5.166-5.167c2.849 0 5.167 2.318 5.167 5.167s-2.318 5.166-5.167 5.166z"></path>
</symbol>
</defs>
</svg>
