<svg style="position:absolute;width:0;height:0" xmlns="http://www.w3.org/2000/svg" overflow="hidden"><defs><symbol id="icon-tumblr-logo" viewBox="0 0 32 32"><title>tumblr-logo</title><path d="M21.021 26.792c-.93 0-1.743-.215-2.437-.646-.542-.32-.902-.736-1.083-1.25-.195-.5-.292-1.695-.292-3.584v-8.208h7.583V8.083h-7.583V0h-4.563c-.208 1.639-.583 3-1.125 4.084a8.88 8.88 0 0 1-2.146 2.75c-.889.75-1.965 1.334-3.229 1.75v4.521h3.542v11.229c0 1.486.153 2.604.458 3.354.292.75.841 1.479 1.646 2.188a8.49 8.49 0 0 0 2.875 1.562c1.125.375 2.417.563 3.875.563 1.333 0 2.535-.132 3.604-.396 1.056-.236 2.292-.688 3.709-1.354v-5.042c-1.597 1.056-3.208 1.584-4.833 1.584z"/></symbol><symbol id="icon-vimeo-logo" viewBox="0 0 32 32"><title>vimeo-logo</title><path d="M27.322 2.139c-4.449-.145-7.459 2.35-9.035 7.489.812-.334 1.601-.503 2.37-.503 1.622 0 2.34.91 2.149 2.736-.095 1.106-.812 2.714-2.149 4.825-1.342 2.115-2.345 3.17-3.01 3.17-.865 0-1.652-1.634-2.37-4.897-.241-.961-.672-3.408-1.289-7.348-.578-3.649-2.107-5.354-4.592-5.114-1.051.097-2.626 1.059-4.728 2.882A416.167 416.167 0 0 1 .001 9.557L1.506 11.5c1.436-1.009 2.276-1.511 2.51-1.511 1.101 0 2.13 1.727 3.087 5.182.858 3.173 1.723 6.341 2.585 9.509 1.284 3.457 2.867 5.186 4.728 5.186 3.011 0 6.698-2.832 11.046-8.498 4.206-5.424 6.378-9.698 6.524-12.822.193-4.175-1.361-6.313-4.662-6.408z"/></symbol><symbol id="icon-wi-fi-signal" viewBox="0 0 32 32"><title>wi-fi-signal</title><path d="M0 0v4.987c14.919 0 27.013 12.095 27.013 27.013H32C32 14.327 17.673 0 0 0zm0 9.974v4.987c9.41 0 17.039 7.629 17.039 17.039h4.987C22.026 19.835 12.165 9.974 0 9.974zm4.779 12.468a4.78 4.78 0 1 0 0 9.559 4.78 4.78 0 0 0 0-9.559z"/></symbol><symbol id="icon-skype-logo" viewBox="0 0 32 32"><title>skype-logo</title><path d="M30.664 18.316c.119-.756.182-1.528.182-2.317 0-8.2-6.647-14.846-14.847-14.846-.787 0-1.562.065-2.317.183A8.971 8.971 0 0 0 1.335 13.684 15.12 15.12 0 0 0 1.154 16c0 8.2 6.647 14.845 14.845 14.845.787 0 1.563-.061 2.318-.18a8.971 8.971 0 0 0 12.346-12.348zm-7.616 4.435c-.628.904-1.551 1.611-2.756 2.119-1.208.509-2.636.763-4.285.763-1.976 0-3.612-.346-4.904-1.044a6.357 6.357 0 0 1-2.232-2.007c-.574-.837-.864-1.657-.864-2.456 0-.472.18-.882.53-1.216.354-.337.809-.506 1.347-.506.44 0 .819.133 1.127.395.306.263.562.645.772 1.149.251.584.524 1.072.815 1.462.289.385.695.706 1.221.957.52.252 1.213.378 2.08.378 1.186 0 2.145-.257 2.879-.763.737-.511 1.092-1.132 1.092-1.883 0-.599-.191-1.075-.583-1.446-.395-.376-.906-.662-1.539-.861-.636-.202-1.489-.416-2.559-.641-1.436-.314-2.638-.678-3.611-1.098-.974-.421-1.75-.996-2.325-1.722-.576-.733-.864-1.645-.864-2.725 0-1.03.303-1.95.911-2.752.607-.804 1.485-1.419 2.63-1.847 1.141-.428 2.484-.643 4.023-.643 1.231 0 2.295.142 3.196.426.899.285 1.648.662 2.247 1.135.595.472 1.033.969 1.31 1.491.277.523.417 1.035.417 1.534 0 .464-.18.885-.53 1.253s-.799.557-1.322.556c-.472 0-.842-.109-1.099-.339-.25-.223-.513-.578-.797-1.072-.359-.69-.789-1.228-1.289-1.612-.487-.377-1.29-.574-2.407-.572-1.034 0-1.861.211-2.486.624-.628.42-.929.907-.93 1.478.001.358.104.659.311.917.21.26.502.486.878.676.376.193.758.342 1.142.45.389.11 1.034.269 1.93.48 1.124.242 2.144.513 3.06.808.915.297 1.695.654 2.34 1.08a4.56 4.56 0 0 1 1.521 1.621c.365.655.547 1.456.547 2.397.001 1.134-.314 2.154-.944 3.057z"/></symbol><symbol id="icon-linkedin-logo" viewBox="0 0 32 32"><title>linkedin-logo</title><path d="M32 19.458v11.831h-6.859V20.251c0-2.773-.992-4.665-3.475-4.665-1.895 0-3.023 1.275-3.519 2.509-.181.441-.227 1.055-.227 1.672v11.522h-6.861s.092-18.695 0-20.632h6.86v2.925c-.014.022-.032.045-.045.067h.045v-.067c.911-1.404 2.539-3.409 6.183-3.409 4.514 0 7.898 2.949 7.898 9.286zM3.882.711C1.535.711 0 2.251 0 4.275c0 1.98 1.491 3.567 3.791 3.567h.046c2.393 0 3.881-1.586 3.881-3.567C7.673 2.25 6.23.711 3.883.711zM.407 31.289h6.858V10.657H.407v20.632z"/></symbol><symbol id="icon-google-plus-logo" viewBox="0 0 32 32"><title>google-plus-logo</title><path d="M20.694 0h-7.632C9.661 0 7.307.746 5.189 2.496 3.523 3.934 2.528 6.023 2.528 8.085c0 3.177 2.422 6.554 6.911 6.554.432 0 .909-.044 1.331-.084l-.062.151c-.18.432-.351.84-.351 1.477 0 1.239.598 2.004 1.176 2.742l.073.094-.129.009c-1.854.127-5.304.364-7.824 1.913C.676 22.711.445 25.285.445 26.032c0 2.97 2.768 5.969 8.953 5.969 7.191 0 10.954-3.968 10.954-7.886.001-2.899-1.699-4.33-3.503-5.849l-1.522-1.184c-.47-.39-1.056-.874-1.056-1.773 0-.883.586-1.466 1.103-1.98l.054-.055c1.644-1.294 3.506-2.762 3.506-5.937 0-3.192-1.994-4.841-2.954-5.634h2.533a.17.17 0 0 0 .088-.025L20.783.306c.062-.039.091-.115.071-.186s-.085-.119-.158-.119zm-9.255 30.251c-4.384 0-7.329-2.047-7.329-5.095 0-1.99 1.205-3.436 3.577-4.295 1.9-.639 4.353-.671 4.377-.671.415 0 .624 0 .956.042 3.067 2.183 4.542 3.329 4.542 5.512 0 2.781-2.347 4.508-6.123 4.508zm-.041-16.782c-3.679 0-5.206-4.836-5.206-7.425 0-1.317.299-2.327.915-3.09.669-.836 1.813-1.377 2.917-1.377 3.378 0 5.246 4.54 5.246 7.678 0 .495 0 2.001-1.04 3.047-.7.698-1.838 1.167-2.832 1.167zm19.992 1.477h-4.021v-4.007a.165.165 0 0 0-.165-.165h-1.73a.165.165 0 0 0-.165.165v4.007h-4.001a.165.165 0 0 0-.165.165v1.753c0 .091.074.165.165.165h4.001v4.033c0 .091.074.165.165.165h1.73a.165.165 0 0 0 .165-.165v-4.034h4.021a.165.165 0 0 0 .165-.165v-1.752a.165.165 0 0 0-.165-.165z"/></symbol><symbol id="icon-twitter-logo-silhouette" viewBox="0 0 32 32"><title>twitter-logo-silhouette</title><path d="M32 6.079a13.112 13.112 0 0 1-3.769 1.034 6.588 6.588 0 0 0 2.885-3.629 13.23 13.23 0 0 1-4.171 1.594 6.545 6.545 0 0 0-4.791-2.074 6.565 6.565 0 0 0-6.395 8.059A18.633 18.633 0 0 1 2.23 4.204a6.515 6.515 0 0 0-.888 3.299 6.562 6.562 0 0 0 2.919 5.463 6.56 6.56 0 0 1-2.973-.824v.082a6.572 6.572 0 0 0 5.265 6.437 6.65 6.65 0 0 1-1.73.23c-.424 0-.834-.042-1.236-.122a6.567 6.567 0 0 0 6.131 4.559 13.169 13.169 0 0 1-8.152 2.805c-.53 0-1.052-.032-1.566-.09a18.552 18.552 0 0 0 10.062 2.953c12.076 0 18.677-10.002 18.677-18.677l-.022-.85A13.117 13.117 0 0 0 32 6.078z"/></symbol><symbol id="icon-facebook-logo" viewBox="0 0 32 32"><title>facebook-logo</title><path d="M23.999.007L19.849 0c-4.662 0-7.675 3.091-7.675 7.875v3.631H8.002a.652.652 0 0 0-.652.653v5.261c0 .361.292.652.652.652h4.172v13.275c0 .361.292.653.652.653h5.444a.651.651 0 0 0 .652-.652V18.073H23.8a.651.651 0 0 0 .652-.652l.002-5.261a.652.652 0 0 0-.653-.652h-4.88V8.43c0-1.479.353-2.23 2.28-2.23l2.795-.001c.36 0 .652-.292.652-.652V.662a.652.652 0 0 0-.651-.652z"/></symbol></defs></svg>